<?xml version="1.0" encoding="UTF-8" standalone="no"?>
<svg
   xmlns:dc="http://purl.org/dc/elements/1.1/"
   xmlns:cc="http://creativecommons.org/ns#"
   xmlns:rdf="http://www.w3.org/1999/02/22-rdf-syntax-ns#"
   xmlns:svg="http://www.w3.org/2000/svg"
   xmlns="http://www.w3.org/2000/svg"
   id="svg8"
   version="1.1"
   viewBox="0 0 210 297"
   height="297mm"
   width="210mm">
  <defs
     id="defs2" />
  <metadata
     id="metadata5">
    <rdf:RDF>
      <cc:Work
         rdf:about="">
        <dc:format>image/svg+xml</dc:format>
        <dc:type
           rdf:resource="http://purl.org/dc/dcmitype/StillImage" />
        <dc:title></dc:title>
      </cc:Work>
    </rdf:RDF>
  </metadata>
  <g
     id="layer1">
    <g
       transform="matrix(0.35277779,0,0,0.35277779,17.142203,85.862494)"
       id="surface1">
      <path
         style="fill:#000000;fill-opacity:1;fill-rule:nonzero;stroke:none"
         d="M 223.55078,0 C 100.06641,0 0,100.06641 0,223.44922 c 0,6.80469 0.300781,13.51172 0.902344,20.11328 1.597656,20.61328 6.101562,40.42969 12.90625,59.14062 l 0.101562,-1.30078 c 1.300782,3.40235 2.601563,6.90625 4.101563,10.20703 l -0.101563,1.40235 c 4.40625,10.30469 9.507813,20.21094 15.414063,29.71875 h 1.097656 C 74.050781,405.37109 143.89844,447 223.55078,447 347.03125,447 447.10156,346.93359 447.10156,223.44922 447,100.06641 346.93359,0 223.55078,0 m -178.218749,317.51172 4.203125,8.40625 -1.902344,0.80078 -2.800781,0.19922 c -5.003906,-8.70313 -9.507812,-17.8086 -13.210937,-27.21875 4.003906,-3.60156 7.105468,-5.80078 9.507812,-5.40235 l -0.800781,8.40625 z m 23.214844,-33.92188 0.800781,1.90235 c 0.398438,3 -1.503906,2.70312 -5.703125,-1.5 l -0.800781,-1.50391 -2.703125,-1.19922 1.5,-4.20312 1.902344,-0.80078 1.101562,-1.5 c 1.097657,-0.40235 1.898438,0.80078 2.300781,3.40234 v 3.40234 z m -6.804687,22.51563 3.800781,0.80078 3.804687,1.90234 3.101563,0.80078 0.800781,8.00391 3.800781,7.20313 -1.5,1.10156 -7.605469,1.5 -5.703124,-1.09766 -7.605469,-5.70703 -3.101563,-16.00781 1.101563,-7.60547 3,3.40234 3.402343,2.30078 z m 20.511718,-70.54688 v 2.30078 l -0.398437,1.10157 -1.5,0.39843 -0.402344,-0.80078 -1.101563,-1.5 -0.398437,-3.40234 1.5,-1.5 1.902344,0.39844 0.398437,1.10156 -0.398437,0.80078 z m 1.203125,20.61328 -0.402343,2.70313 v 2.30078 l 1.902343,-1.90234 1.101563,-2.30078 c 1.101562,0.39843 1.5,1.5 1.101562,3 l -1.503906,4.60546 1.902344,7.60547 c -0.800782,1.89844 -3.402344,-0.40234 -8.804688,-8.00781 l -5.304687,-3.80078 -2.703125,-5.70313 8.007812,4.20313 c 0.398438,-1.50391 -0.402344,-3.00391 -2.300781,-4.60547 l -3.804687,-4.20312 c -3.402344,-5.70313 -3.402344,-8.40235 -0.800782,-8.40235 l 2.703125,3.40235 h 1.101563 z m 6.101563,-15.71093 v 0.80078 l -0.398438,1.10156 -0.402344,0.39844 h -1.5 l -1.5,-0.80078 v -3.80078 l 0.800782,-1.10157 c 0.398437,-0.39843 0,-1.5 -0.402344,-2.30078 l -0.800781,-2.30078 0.402343,-1.90234 c 0.398438,-1.90235 1.101563,-1.90235 3.402344,0 l 1.5,1.5 0.402344,2.70312 -0.800781,2.30078 -1.101563,1.5 z m -0.800782,62.64062 c -0.398437,2.70313 -1.097656,3.40235 -2.300781,2.30469 l -3,-3.80469 -2.703125,-0.39844 -1.101562,-1.5039 L 76.953125,297 75.050781,285.58984 v -0.79687 c 1.5,-2.70313 3,-1.90235 4.601563,3.40234 6.804687,1.89844 10.308594,6.50391 9.105468,14.90625 m 12.609378,80.95703 4.80469,-0.40234 c 2.80078,2.40234 2,4.40234 -1.60157,6.00391 z m 16.3125,3.20313 c 0.80078,0 1.19922,0.39844 1.60156,1.19922 l -4.00391,4.40234 -0.39843,-4.00391 c 0.39843,-0.80078 2,-1.19921 3.60156,-1.19921 z m -2.80078,-4.00391 c -0.40235,3.20313 -2.00391,3.60156 -4.40625,1.60156 l -1.59766,-5.20312 4.40234,1.60156 c 1.19922,0.39844 2,1.19922 1.60157,2 m 6.40234,9.60547 0.40234,-1.19922 2.80079,-2.40234 0.80078,-1.60156 h 1.60156 l 0.80078,2.80078 h 2 l -4.80469,5.60547 -0.39843,-1.20313 z m 15.91016,-12.30859 c 0,2.80078 1.20312,4.0039 2.80078,3.60156 2.80468,2.00391 3.60547,0 2.80468,-5.20313 l 4.80079,-3.19921 2.0039,6.0039 -0.80078,-0.80078 -2.40234,1.19922 4.40234,0.40234 1.60156,-0.40234 0.39844,-1.60156 h 1.20313 l 2,-0.80078 -0.80079,4.0039 -3.60156,1.19922 c -0.39844,2.80469 0.80078,3.60547 2.80078,2.80469 l 2.00391,-2.40235 2.39844,-1.20312 c 2.0039,0 2.40234,2.00391 1.20312,4.80469 l 2.40235,-0.39844 c 0.39843,3.19922 0,5.20312 -1.20313,6.40234 l -4.40234,-4.80468 -5.20313,2.0039 C 150,391.76172 150,390.5625 151.20312,388.5625 l -7.60546,-2.00391 v 3.20313 h -7.10547 l -1.20313,-2 -0.79687,-2.80469 z m -1.60157,-4.40235 1.20313,-4.80468 4.40234,-1.19922 v 4.40234 l -1.60156,3.60156 c -1.19922,-1.19922 -2.80078,-2.39843 -4.00391,-2 m 15.91016,-4.80468 3.20312,-0.80079 2.00391,2.80469 v 3.60156 l -1.20312,-2 h -0.39844 l -0.80078,0.39844 c -4.80469,0.40235 -5.60547,-1.19922 -2.80469,-4.0039 m 23.91797,8.00781 h -4.40235 l 0.39844,-3.60156 c 2.40235,-3.20313 3.60156,-3.20313 3.60156,0 l 0.40235,-0.80079 0.39844,2.39844 z m -2.80078,9.5039 -0.40235,-4 2.80078,0.39844 c 1.20313,2.40235 0.80079,3.60156 -2.39843,3.60156 m -1.60157,4.80469 -4.40234,2 -1.60156,-3.60156 5.60156,-1.60156 c 0.40234,0.80078 0.80078,2.0039 0.40234,3.20312 m 7.90625,-16.71094 v -4.0039 l 2.39844,-0.39844 -0.39844,0.39844 c 1.19922,2.40234 0.80079,4.0039 -2,4.0039 m 3.19922,7.10547 c 0,2.80078 -0.39843,4 -1.19922,4.40235 l 0.39844,-0.40235 -2.80078,-0.79687 v -3.20313 z m 0,-2.0039 v -2 l 4.40235,-0.80078 1.60156,3.60156 -2,2.0039 -1.60156,-2.0039 z m 10.00782,8.00781 c -1.19922,0.39844 -1.60157,-0.40234 -1.19922,-2.40234 l 1.19922,-4.40235 c 3.60156,0 4.80468,1.60156 3.60156,4.80078 l -1.19922,2.00391 -2.00391,-0.40234 -1.19922,-0.39844 z m 21.01562,2.40234 -5.60547,0.80078 -0.39844,-1.60156 z m -5.10547,-10.00781 5.20313,1.60156 c 2.0039,2 2.0039,3.20313 -0.39844,4 l -3.20313,-1.19922 c -2.40234,-1.60156 -2.80078,-2.80078 -1.60156,-4.40234 m 13.10938,4.80469 c 1.60156,-1.20313 3.20312,-0.40235 3.60156,2.39844 -6.00391,2.0039 -7.20313,1.20312 -3.60156,-2.39844 m -1.19922,-3.60547 c 0,-2.39844 0.80078,-3.19922 2.80078,-2.39844 l 1.19922,2 h -0.80078 z m 29.41797,4.00391 -1.60157,-0.39844 -1.60156,-2.80469 0.40235,-3.60156 2,-0.80078 v 4.40234 z m 13.10937,-6.00391 c 0.80078,1.19922 0,2.40234 -2,3.60156 -2.80469,-0.39844 -4.40625,-1.19922 -4.80469,-2.40234 l 2,-4.40235 z m -4.30469,-9.10547 3.60547,-2.40234 c 1.19922,2 1.59766,3.20312 0.39844,4.40234 -2,0.40234 -3.60156,0 -4.00391,-2 m 3.50391,21.51563 -2,-0.40235 h -3.20312 c -0.80079,-1.19922 -0.80079,-2 0.39843,-2.40234 l 3.20313,-1.19922 h 1.19922 c 0.40234,1.19922 0.80078,2.40234 0.40234,4.00391 m -2.30078,3.60156 v 2.80078 l -4.80469,0.39844 0.80078,-2.80078 z m 15.10937,-13.21094 c -3.20312,-2 -3.20312,-3.19922 -0.80078,-4 1.60157,-0.40234 2.40235,0.80078 2.40235,3.60156 h 0.39843 l -0.39843,0.80078 v -0.80078 z m -2.40234,3.60156 -0.39844,2.00391 3.19922,0.39844 h 2.80469 c 1.60156,0.40234 2,2.40234 1.19922,6.40625 h -1.19922 v -0.80078 l -1.60156,-1.20313 0.39843,0.80078 -1.60156,-0.80078 -2,-2.39844 -2.80078,-2.40234 -2.80078,-0.40234 c -2.00391,-2.80079 0,-3.19922 4.80078,-1.60157 m 32.22266,-7.20312 c 1.19922,2.40234 1.19922,4.0039 0,5.60547 -2,0.80078 -3.60157,0 -3.20313,-2.40235 z m -2.80078,-13.50781 2,-1.60157 0.80078,1.19922 v 0.40235 l -0.40235,-0.40235 z m -34.22266,28.3164 1.59766,-2 c 1.60156,1.19922 2.0039,2.80078 0.80078,4.80469 l -2.80078,1.60156 -2,-1.20312 0.80078,-1.60157 z m 81.55469,-8.20312 v -3.00391 l 8.80468,-9.20703 -7.60546,2.80469 c -2.80079,2 -4.40235,2 -4.00391,0 l -1.60156,0.39843 -1.59766,3.60157 -0.80078,-2.39844 -2.80469,2 -1.19922,-4.40234 -1.60156,0.39843 -2,9.50782 c -0.40234,3.20312 -1.20312,4.40234 -3.20312,3.20312 l -2,-2.80469 -0.40235,-4 -4.0039,0.39844 -0.59766,5.70313 c -1.60156,2.0039 -2.80469,2.80468 -4.80469,2.40234 l -2,-2.40234 -1.20312,-3.60157 5.60547,-7.60547 h -4.80469 l -5.20313,0.80079 c 0,-2 -0.39843,-3.20313 -1.60156,-3.60157 l 11.91016,-0.80078 2,0.80078 -6.00391,-3.60156 -4.80469,-1.60156 -9.10547,2.40234 c 0,-3.20312 3.20313,-5.60547 9.50782,-6.0039 l -3.60157,-3.20313 -6.0039,-3.20312 c -4.00391,-1.19922 -6.00391,0.80078 -6.40625,5.60546 -1.60156,-1.20312 -3.60156,-0.80078 -4.80078,2.40235 l -3.20313,5.60156 c 0.39844,0 2.40235,1.60156 6.40235,4.80469 l -4.80079,2.40234 -2.40234,6.00391 4.00391,-4.00391 c 2.39843,0 3.19922,1.19922 2.39843,3.60156 -1.60156,2.80079 -2.80078,4.40235 -4.80078,4.40235 l -7.20703,-5.20313 -2.80078,-3.20312 c -0.80078,-1.19922 0.39844,-2.39844 2.40234,-3.19922 l 4.80079,0.39844 v -2.40235 l -3.19922,-4 c -0.80078,-1.60156 -2.00391,-2.0039 -3.20313,-1.60156 1.19922,-2.00391 2.40235,-2.80469 3.60156,-3.20312 l -9.5039,-0.80079 c 1.19922,-4.0039 2.39844,-6.0039 4.40234,-5.60546 -5.60547,-1.19922 -9.50781,-0.79688 -11.10937,2.0039 0,-3.60156 0.80078,-6.0039 2.80078,-7.20703 -2,-1.19922 -5.20313,0.80078 -9.50391,6.00391 l 0.39844,-6.80469 -6.80469,9.10937 -2.80078,6.80469 -3.60156,5.20313 -6.00391,-2.00391 -4.0039,0.40234 -0.39844,0.80079 c -0.80078,-2.40235 0,-4.00391 2,-6.00391 l -4.00391,2.40234 c -4.40234,4.80078 -6.80469,5.20313 -7.20312,1.59766 l -10.00782,2.40234 0.80079,-3.60156 1.60156,-3.20312 -6.40625,4.0039 2.80469,-8.30469 c 0.80078,-2.80468 2.40234,-4.80468 5.20312,-6.0039 -2.00391,-0.80078 -4.00391,0 -6.40625,2.80078 l -5.60156,6.40234 -0.70313,-12.60547 -2,1.60157 -0.80078,2.80078 -3.20312,2.40234 -2.39844,4.80078 -2.80469,2.80469 c -3.19922,-6.40625 -6.40234,-10.30859 -9.10547,-12.71094 v 5.20313 l 2.40235,3.60156 1.60156,5.60547 1.19922,6.00391 -1.60156,-0.80079 -7.50391,-3.60156 -2.40234,-2.80078 -2.80079,-2.00391 2.80079,-2.40234 c -0.39844,-0.79687 -2,-1.19922 -5.60157,-1.19922 l -6.0039,-0.80078 -0.80078,-3.60156 -4.40235,2.40234 -1.60156,2.40235 -1.20313,-1.20313 c -1.60156,-0.39844 -2.40234,0 -2.80078,1.20313 l -0.80078,4 -4.0039,-2 -3.60157,-3.20313 3.60157,-1.19922 -4.80079,-1.60156 c -2.40234,0 -4.40234,0.80078 -6.80468,2.80078 -0.40235,-2.40234 0.80078,-5.20312 3.20312,-9.10547 -3.20312,-1.19922 -6.40625,-0.80078 -8.30859,2 l 0.40234,-2.80078 c -2.80469,-0.39844 -5.60547,1.60156 -7.60547,6.40625 l -2,-6.80469 c -2.40234,2 -2.80468,4 -2.40234,7.10157 l -9.90625,1.60156 c 0.80078,0 2.80078,1.20312 6.00391,3.20312 -2.80469,-0.39843 -4.40625,1.60157 -5.20313,4.40235 l 0.79688,5.20312 c -0.39844,-2.80078 0.40234,-4.40234 2.40234,-5.20312 2.40234,-0.80078 4.00391,-0.39844 6.00391,1.20312 l -2,6.00391 1.19922,-1.20313 c 2.0039,2.00391 2.40234,3.60157 1.20312,5.20313 l -3.60156,-1.19922 c -5.60547,-4.80469 -8.70703,-5.60547 -9.50781,-2.40234 -0.80079,-4.00391 -2.80079,-5.60157 -6.00391,-5.20313 -3.20313,0.39844 -5.60547,2 -7.60547,5.20313 0,-6.40235 2.40234,-11.90625 7.20313,-16.3125 l -8.30469,5.20703 -4.000002,7.10156 -2.003907,-3.60156 -3.601562,-3.60157 -1.601563,7.50391 -2,-1.60156 H 86.15625 v 4.30469 C 74.25,367.14453 63.542969,355.23828 54.4375,342.12891 l 10.605469,-2.30079 H 76.152344 L 92.5625,335.625 l 35.125,-2.70313 9.50391,-2.30078 6.5039,-6.5039 c 3.40235,-4.60157 7.20703,-7.20313 11.41016,-8.40625 l 16.80859,-5.00391 1.50391,-6.90234 4.90234,3.80078 6.10156,0.40234 2.30469,-1.90234 1.89844,-2.70313 6.50781,-1.09765 13.3086,1.5 7.60546,13.00781 1.5,-6.50391 -0.80078,-7.20703 -4.20312,-3.40234 -2.70313,-5.30078 c -2.69922,-3.10157 -6.90234,-3.40235 -11.40625,-1.5 -5.30468,2.30078 -9.10547,3.40234 -11.10937,2.30078 0.40234,-5.30469 4.60547,-8.40625 12.60937,-8.40625 2.70313,0 6.10547,1.10156 9.20703,2.70312 l 7.60547,2.69922 c -1.5,-6.90234 -8.40625,-11.40625 -21.01562,-14.50781 -14.91016,-3.00391 -21.3125,-0.40234 -18.71094,8.40625 l -5.30469,1.89844 c -0.39843,3.0039 -1.5,5.0039 -4.60156,5.70312 l -8.00781,1.20313 c -0.39844,1.5 -0.80078,2.30078 -1.89844,2.70312 l -3.80469,1.09766 -3,6.90625 -6.5039,0.80078 c -3.10547,-0.40234 -4.90625,0.80078 -6.10547,3.10156 l -6.90625,-3.40234 -2.69922,2.70312 c -3.00391,-0.40234 -3.80469,-3.10156 -2.70312,-8.40625 1.5,-5.70312 4.20312,-6.90625 7.60546,-3.80468 0.80078,-2.69922 3,-3.40235 6.10547,-2.69922 l 7.60156,1.5 c 0.80079,-1.10157 3.40235,-2.30078 7.20704,-2.70313 l 8.0039,-3 c 3.40235,-2.70312 5.70313,-6.5039 8.00781,-11.80859 -3.10546,-1.10156 -4.20312,-2.70313 -3.10546,-4.60156 0.80078,-1.90235 2.30468,-3.00391 5.0039,-2.30469 l -0.39844,-6.10156 c 1.90235,1.09765 4.20313,0.80078 6.50391,-1.10157 l 6.10547,-5.0039 8.00391,0.40234 7.20312,1.5 c 1.90234,-6.50391 -3,-9.90625 -14.50781,-9.10547 l -11.10938,1.5 -2.69922,3.40235 -3.80468,2.70312 -1.89844,-9.91016 c 1.89844,1.50391 3.80078,1.50391 6.10156,0 l 5.30469,-3.80078 8.40625,1.5 6.50391,-1.10156 c -5.00391,-10.30469 -14.91016,-11.10547 -30.51954,-1.89844 -7.60546,4.60157 -10.30859,8.40625 -9.20703,12.20703 l 3,2.70313 c 2.30469,1.09766 3.10547,1.89844 3.10547,3 l -3.40234,6.50391 3.40234,4.20312 -7.60547,4.60547 -9.90625,1.5 -4.20312,6.10547 -3.80469,0.79687 c -1.10156,-0.39843 -2.30078,0.40235 -2.70312,1.50391 l -9.50391,-0.80078 -2.70312,-3.40235 -3.80079,-3.10156 c -2.70312,-1.10156 -4.60546,0.80078 -6.5039,4.20313 l -3.80469,7.60156 C 96.265625,286.29297 92.761719,277.08594 93.5625,264.17578 l 8.00391,2.70313 -3.402348,-6.90625 -1.898437,-8.40235 c 1.5,-7.60547 5.300785,-11.10937 10.707035,-11.10937 v -16.01172 c 3.80078,-5.30078 5.30078,-2.69922 5.30078,6.90625 0.40234,6.5039 -0.39844,16.8125 -2.69922,31.32031 l 13.00781,-23.31641 1.10156,-13.00781 c 0.39844,-6.10547 2.30079,-8.40625 5.30469,-5.70312 2.69922,1.90234 3.40234,6.5039 2.30078,13.70703 l -13.30859,33.22265 c 1.89844,0.40235 4.60156,-2.69921 8.00391,-9.5039 l 6.90624,-13.71094 4.60157,-5.30469 0.80078,-6.90234 5.70312,-13.00781 c 1.90235,0.39843 2.70313,3 1.90235,7.20312 l -1.5,13.00781 11.00781,-33.22265 h 2.69922 l 1.10156,21.01562 c 3.10156,-3.80078 5.30469,-9.20703 5.70313,-14.91015 l -0.39844,-9.90625 0.80078,-8.80469 c 5.30078,-1.50391 7.60547,2.30078 6.90234,11.40625 -0.80078,9.20703 0,13.30859 1.90235,13.00781 0,-10.70703 1.5,-17.51172 5.0039,-20.61328 1.10157,1.10156 3.10157,5.70313 5.70313,13.71094 l 7.60547,12.60547 38.125,25.51953 16.01172,6.5039 c 3.40234,2.30079 8.0039,6.10547 12.60937,11.40625 l 11.40625,12.60938 c 9.50781,8.40625 20.61328,12.60937 32.42188,13.71094 l 8.80468,-1.10157 4.60547,-1.10156 c 0.39844,0 0.80078,0.39844 1.09766,0.80078 l 1.5039,0.80078 c 8.00391,-0.80078 12.20704,-3.40234 12.60547,-8.40625 l -6.5039,-2.30078 -4.20313,-5.0039 -15.30859,-5.30469 -13.71094,-8.40625 -10.50391,-11.80469 -12.60937,-9.10937 0.80078,-1.89844 -14.51172,-20.21484 c -5.70312,-13.3086 -5.70312,-20.21485 0.40235,-21.71485 l 5.0039,2.30078 6.10156,-0.39843 -10.30468,-16.8125 -8.40625,-5.70313 c -5.00391,-2.70312 -8.00782,-3.80078 -9.20703,-2.70312 l -1.10157,-3.80079 11.8086,-1.5 3.40234,-3.10546 4.20313,-1.09766 c 2.30078,-0.80078 4.60156,0 6.90625,1.89844 l 5.70312,2.70312 9.50391,-2.70312 c 3.80468,-0.80078 6.90625,0.80078 9.10937,4.60547 2.30078,3.40234 4.60156,6.10156 7.20313,6.5039 l 9.90625,1.90235 7.20312,5.70312 c 5.70703,-0.40234 9.50781,0.80078 10.71094,3.40234 l 10.30469,1.10157 11.40625,3.80078 11.80859,0.40234 c 5.70313,0.39844 9.10547,1.5 10.70703,3.40235 l 4.60547,-0.40235 4.20313,1.90235 7.60546,-0.80079 c 6.50391,0.80079 9.50391,4.60157 9.50391,11.40625 5.00391,1.90235 8.80469,1.10157 12.60938,-2.69921 l 4.60156,-7.60547 3.10156,-7.60547 c 1.90234,-5.00391 1.50391,-9.50781 -1.5,-13.3086 l -8.80469,-13.71093 c -3.80468,-6.50391 -6.90625,-10.70703 -10.30859,-13.3086 l -14.50781,-9.50781 -15.21094,-5.00391 -17.91016,-15.60937 -4.20312,-1.10156 -3.40235,-2.69922 -25.91796,-18.3125 C 300.5,92.960938 292.79687,86.457031 290.59375,80.355469 L 283.69141,77.25 h -3.40235 l -3.40234,-1.097656 -0.40235,-5.703125 c 0.40235,-3.003907 -0.80078,-5.707031 -2.69921,-7.207031 l -15.21094,-3.800782 -8.00781,-8.40625 c -2.69922,-0.402344 -6.90235,1.101563 -13.00782,4.601563 l -5.70312,1.5 -6.50391,0.402343 -11.10937,5.703126 -12.20703,1.5 c -1.90235,0 -4.20313,1.101562 -7.60547,3.804687 L 186.42578,72.75 c -3.40234,0.800781 -8.80469,-0.402344 -16.8125,-5.003906 l -4.20312,-3.003906 c -1.90235,-1.097657 -3.40235,0 -4.60157,1.902343 l 4.60157,6.503907 1.90234,1.101562 1.90234,1.5 -0.80078,4.203125 2.69922,4.203125 c 1.10156,1.101562 1.10156,2.703125 0,4.203125 l -9.10547,-2.703125 -7.20312,-5.003906 -9.10547,-1.097656 c -3.80469,0.398437 -6.10547,2.300781 -6.90625,4.601562 l 8.40625,5.304688 c 3.80078,1.898437 5.0039,4.203124 4.60156,7.605468 5.00391,0 6.10547,1.898438 3.40234,5.003904 l -8.40625,1.09766 c -2.69921,0.40234 -6.90234,-1.09766 -12.60546,-4.203126 -7.20703,-3.800782 -11.10938,-3.402344 -11.41016,1.101566 l 3.40234,5.30468 3.40235,6.50391 c 2.70312,8.80469 1.5039,12.20703 -3.80078,11.10938 l -5.70313,-3.40235 -6.90625,-1.10156 c -4.20312,1.89844 -4.20312,5.30078 0,9.90625 5.70313,5.70312 8.00391,9.90625 7.60547,11.80859 l -6.90625,-2.30469 c -2.30078,-1.09765 -3.40234,-0.79687 -3.80078,1.50391 l 3,6.10156 c 2.30469,2.30469 3.40234,4.20313 3.10547,6.50782 l -8.00781,-3.40235 c -2.69922,-2.70312 -5.30469,-3.40234 -7.60547,-2.70312 l 6.10547,14.91015 c 0,5.00391 -1.10157,6.10157 -3.00391,3.80078 l -6.101564,-6.5039 c -3.804687,-0.80078 -5.304687,0.80078 -4.605468,4.60547 l 3.003906,8.0039 c 0.800781,3.40235 -0.800782,8.00391 -4.902344,13.00782 l -3.804688,-3.40235 c -1.101562,-1.90234 -2.300781,-2.69922 -3.800781,-2.30078 -1.902343,0.39844 -2.703125,1.10156 -1.902343,3.00391 l 2.703124,4.19922 c 3.402344,6.50781 3.101563,8.40625 -1.902343,6.50781 l -4.601563,-8.40625 c -2.703125,-0.40235 -3.003906,1.5 -1.503906,5.70312 1.503906,4.20313 0.800781,7.20313 -2.300781,7.60547 -3,0.39844 -6.105469,-4.20312 -8.804688,-14.51172 -2.300781,1.10157 -3.402343,4.20313 -3.402343,8.40625 -0.402344,5.00391 -0.800782,7.60547 -1.902344,8.80469 -2.300782,3.40234 -4.203125,3.80469 -5.703125,1.50391 l -5.304688,-7.20703 -3.800781,-1.10157 -2.300781,-3.40234 c -2.304688,-0.79688 -4.605469,0 -5.707031,1.90234 v 8.00782 L 38.125,207.83984 34.324219,207.03906 21.3125,198.23437 c -0.898438,-0.60156 -1.800781,-1.0039 -2.5,-1.30078 C 31.820312,95.464844 118.48047,17.011719 223.55078,17.011719 c 113.97656,0 206.4375,92.460941 206.4375,206.437501 -0.10156,66.84375 -31.82031,126.28515 -81.15234,164.01172 m -252.472659,-88.5586 0.402344,0.39844 3.800785,5.30469 -3.402348,6.10156 c -2.699218,2.70313 -4.203124,2.70313 -4.601562,0 l 1.101562,-3.10156 0.398438,-3 c -1.101562,-5.40625 -0.699219,-7.30469 2.300781,-5.70313 M 263.47656,103.57031 258.17187,97.464844 c -0.39843,-2.300782 0.40235,-4.601563 3.40235,-7.605469 2.70312,-2.300781 5.30469,-3.101563 7.20703,-2.699219 l -1.5,-1.503906 0.39844,-1.5 h 1.90234 l 7.20313,15.210938 c 1.90234,6.503902 2.30078,12.207032 1.10156,16.812502 l -8.00391,15.20703 c -4.60547,5.70703 -8.40625,6.5039 -12.60937,1.10156 -4.20313,-5.30469 -4.20313,-9.5039 0,-11.80859 6.10156,-3.80078 9.5039,-6.50391 9.90625,-10.30469 0.5,-3.00391 -0.60157,-4.90234 -3.70313,-6.80469 m 34.72266,23.61328 -3,-8.0039 -1.10156,-8.80469 3.40234,-1.5 c 3,-2.30469 5.70312,-0.40234 9.10547,6.10156 l 19.41406,24.01563 c 3,5.0039 2.30078,9.50781 -2.70312,14.10937 -6.50391,6.10547 -11.10547,9.10547 -14.10938,8.00781 L 298.19922,150.5 c -5.30078,-6.50391 -7.20313,-10.30469 -6.50391,-11.40625 l 3.80469,-1.20313 3,-1.89843 c 0.80078,-1.5 0.80078,-4.20313 -0.30078,-8.8086 m 53.03515,39.32813 -11.10546,-0.80078 -8.80469,0.80078 c -4.60547,-0.80078 -5.00391,-3.40235 -1.10156,-8.00391 1.10156,-1.90234 5.30078,-2.70312 11.40625,-2.70312 l -5.70313,2.30078 c 11.50781,-1.90235 16.41016,0.80078 15.30859,8.40625"
         id="path4518" />
      <path
         style="fill:#000000;fill-opacity:1;fill-rule:nonzero;stroke:none"
         d="m 322.21484,252.66797 -16.80859,11.41015 c -1.50391,0.80079 -1.90234,1.5 -0.80078,2.69922 l 3.80078,1.50391 c 2.70312,0 6.10547,-2.30469 9.10547,-6.90625 z m 3.50391,23.3164 c 3.40234,2.30079 6.90625,-4.20312 11.10547,-20.21093 -9.20313,11.40625 -13.10547,18.30859 -11.10547,20.21093 m -19.11328,-30.51953 c -7.60547,9.90625 -10.70703,14.91016 -8.80469,16.01172 3,1.89844 5.00391,-0.40234 6.90234,-5.30469 z m 25.51562,3.40235 -9.5039,9.90625 c -5.70313,6.90625 -7.60547,10.70703 -5.70313,12.60937 2.30078,1.90235 5.70313,-1.5 9.90625,-8.80469 3.40235,-6.80468 5.70313,-11.80859 5.30078,-13.71093 m -40.02343,2.30078 -0.40235,4.20312 c 0.40235,1.5 1.90235,1.90235 3.40235,0.80078 4.20312,-4.60156 6.5039,-9.90625 7.60546,-17.51171 z m 2.69921,-16.8125 -9.60546,9.20703 -1.10157,3.80469 3.00391,2.30078 4.60156,-6.90625 z m -10.70703,-12.20703 -13.00781,10.70703 0.80078,4.20312 c 1.10156,1.10157 2.30078,1.5 3,0.80078 l 5.00391,-6.10546 z m 3.80469,7.30468 -7.20703,7.60547 c -3.40234,2.70313 -4.20313,4.20313 -1.5,5.30469 1.5,0.80078 3.80078,-0.80078 6.10547,-4.60547 1.80078,-3 2.60156,-5.70312 2.60156,-8.30469 m 64.84375,-26.3164 -1.10156,0.39844 -1.10156,1.5039 -1.90235,4.60156 -5.0039,6.90625 8.40625,-6.10546 c 3.0039,-5.00391 3.0039,-7.30469 0.70312,-7.30469 m 24.41406,3.80078 c 0.80078,-2.30078 0.40235,-3.80078 -0.80078,-4.20313 -2.30078,-0.80078 -3.80078,-0.80078 -5.0039,1.50391 l -2.30079,5.70313 c -1.5,4.60156 -4.60156,8.80468 -8.80468,13.00781 L 373.25,213.04297 c 2.40234,-2.30078 3.50391,-4.20313 3.90234,-6.10547"
         id="path4520" />
      <path
         style="fill:#000000;fill-opacity:1;fill-rule:nonzero;stroke:none"
         d="m 331.42187,280.1875 c 4.60547,3.40234 7.20704,-2.30078 8.80469,-16.8125 -8.80469,8.80859 -11.90625,14.10937 -8.80469,16.8125 m 48.83204,-56.83594 c 3.40234,0 6.90625,-1.20312 11.10937,-4.20312 3.80078,-2.70313 5.30469,-4.90625 3.80078,-6.50391 -1.19922,-1.90234 -5.80469,1.89844 -14.91015,10.70703 m 4.5039,-18.71484 c -2.30078,-1.10156 -5.0039,1.10156 -6.90234,6.10547 l -5.30469,9.5039 9.90625,-7.20312 c 3.50391,-5.00391 4.20313,-7.60547 2.30078,-8.40625 m -17.10937,-2.70313 c -1.10157,-0.79687 -3.10547,0 -4.20313,2.70313 -2.70312,5.70312 -6.5039,11.10937 -11.80859,14.51172 3.40234,0 8.0039,-2.30469 12.60937,-6.50391 3,-6.50781 4.5,-9.91016 3.40235,-10.71094 m -99.57032,21.81641 -3.40234,3.40234 2.70313,2.30078 c 3.10156,0.80079 5.70312,-2.69921 7.60546,-10.30468 z m 74.35157,-23.71484 c 0.40234,-1.90235 0,-3.10157 -1.10157,-3.40235 -1.89843,-0.80078 -3.80078,0.39844 -6.10156,3.40235 l -10.70703,14.50781 c 9.20313,-2.69922 14.91016,-7.60547 17.91016,-14.50781 m 8.40625,0.39843 -0.80078,-1.89843 h -2.70313 l -1.89844,1.5 c -3.10547,6.90234 -6.50781,11.40625 -9.50781,14.10937 l 13.30859,-9.90625 z m -44.62891,57.23828 c -0.40234,1.90235 0,2.70313 1.09766,3.00391 l 3.80468,-1.90234 5.70313,-11.40625 3.40234,-12.21094 -11.40625,17.21484 z m 26.31641,-59.13671 0.80078,-1.90235 -0.80078,-1.5 -1.5,-1.5039 -1.90235,0.80078 -13.00781,17.91406 c 8.40625,-3.90234 13.70703,-8.10547 16.41016,-13.80859 m 58.33984,8.0039 c -1.20312,-1.20312 -2.70312,-0.80078 -4.60547,1.90235 l -2.69922,5.70312 c 6.90235,-3.40234 9.20313,-5.70312 7.30469,-7.60547 m -30.82031,1.5 2.69922,-6.10547 c -0.39844,-1.89843 -1.89844,-1.89843 -3.80078,-1.09765 -1.10157,0.39843 -1.90235,2.30078 -1.90235,4.20312 l -3,8.00391 c 1.80078,0 3.69922,-1.5 6.00391,-5.00391 m -46.9336,-11.00781 c 3.40235,-3.80078 4.20313,-6.50391 2.70313,-8.40625 -0.80078,-0.80078 -2.70313,0 -4.60547,1.90234 l -6.50391,13.00782 z m -52.63281,11.80859 1.89844,-3.80078 -5.70313,2.30078 v 2.69922 c 1.10157,1.50391 2.60157,0.70313 3.80469,-1.19922 m 6.10156,0.80078 -5.0039,3.40235 c -1.89844,1.5 -3.10156,2.70312 -1.5,3.40234 1.90234,1.5 4.20312,-0.69922 6.5039,-6.80469 m 42.73047,0.30079 9.50391,-8.00782 5.00391,-6.5039 -0.39844,-4.20313 c -3.40235,0.40235 -5.30469,1.50391 -6.10547,3.40235 l -2.30078,5.30468 z m -5.80468,-26.61719 c -2.30079,-1.10156 -4.20313,1.5 -5.30469,7.20312 l 4.20312,-3 c 1.90235,-2.30468 2.30078,-3.90234 1.10157,-4.20312 m -32.02344,30.82031 -6.90235,3.40234 c -3.10156,2.30079 -3.40234,4.20313 -1.5,6.10157 1.19922,1.60156 4.20313,-1.5 8.40235,-9.50391 m 34.32422,-20.91406 4.60547,-5.00391 -1.50391,-2.30078 -4.20313,3.40234 -3.80078,6.90235 z m 0,0"
         id="path4522" />
    </g>
  </g>
</svg>
