<?xml version="1.0" encoding="utf-8"?>
<!-- Generator: Adobe Illustrator 28.0.0, SVG Export Plug-In . SVG Version: 6.00 Build 0)  -->
<svg version="1.1" id="Logo_x5F_JP_x5F_Color" xmlns="http://www.w3.org/2000/svg" xmlns:xlink="http://www.w3.org/1999/xlink"
	 x="0px" y="0px" viewBox="0 0 787 592.6" style="enable-background:new 0 0 787 592.6;" xml:space="preserve">
<style type="text/css">
	.st0{fill:#FCEE23;}
	.st1{fill:#FFFFFF;}
	.st2{fill:#E42127;}
</style>
<path id="Black" d="M393.5,1.8c-39.7,0-78.3,7.8-114.6,23.2c-35.1,14.8-66.6,36-93.7,63c-27,27-48.3,58.5-63.1,93.6
	c-14.7,34.8-22.5,71.7-23.1,109.7H7.5h-6v6v211.9v6h6h189.1c26.7,24,57,42.7,90.2,55.6c34,13.2,69.8,19.9,106.6,19.9
	s72.7-6.7,106.6-19.9c33.2-12.9,63.5-31.6,90.2-55.6h189.1h6v-6V297.4v-6h-6h-91.5c-0.6-38-8.4-74.9-23.1-109.7
	c-14.8-35.1-36.1-66.6-63.1-93.6S543.1,39.8,508,25C471.8,9.6,433.2,1.8,393.5,1.8L393.5,1.8z"/>
<path id="Yellow" class="st0" d="M682,297.4c0-0.4,0-0.7,0-1.1c0-38.9-7.6-76.7-22.7-112.3c-14.5-34.4-35.3-65.2-61.8-91.7
	S540.1,45,505.8,30.5c-35.6-15-73.4-22.7-112.3-22.7s-76.7,7.6-112.3,22.7C246.8,45,216,65.8,189.5,92.3s-47.3,57.3-61.8,91.7
	c-15,35.6-22.7,73.4-22.7,112.3c0,0.4,0,0.7,0,1.1H7.5v211.9H199c53.3,48.7,122,75.5,194.5,75.5S534.7,558,588,509.3h191.4V297.4
	H682z M758.9,488.7h-179c-48.2,46.7-113.9,75.5-186.4,75.5s-138.2-28.7-186.4-75.5h-179V318h98.3c-0.6-7.2-0.9-14.4-0.9-21.7
	c0-148,120-267.9,267.9-267.9s267.9,120,267.9,267.9c0,7.3-0.3,14.5-0.9,21.7h98.3v170.7H758.9z"/>
<g id="White_00000111157103694253635080000009596178015397689240_">
	<path id="K" class="st1" d="M746.4,446.7c-4.2-7.2-8.1-14.5-12-21.9c-4-7.3-7.9-14.7-11.8-22.1c-1.6-2.9-1.7-5.7,0.1-8.7
		c2.5-4.2,4.8-8.5,7.1-12.7c3.7-6.6,7.3-13.3,11-19.9c1.5-2.6,0.7-4.3-1.9-5.6c-3.6-1.9-7.1-4.1-10.7-5.9c-7-3.6-7-3.4-9.8,3.9
		c-3.1,8.4-6.6,16.6-10.1,24.9c-0.6,1.5-1.8,2.7-2.7,4c-0.3-0.1-0.7-0.2-1-0.3c-0.2-1.8-0.5-3.5-0.6-5.3c-0.1-8.8-0.1-17.6,0-26.4
		c0-2.1-0.5-3.2-2.7-3.3c-4.9-0.3-9.8-0.9-14.7-1.1c-6.2-0.3-6.2-0.2-5.8,5.7c0,0.1,0,0.2,0,0.3c0.5,9.9,1.2,19.7,1.3,29.6
		c0.2,19.2,0.1,38.4,0.1,57.6c0,6,0,12,0,18.4c7.6,0.5,15,0.9,22.8,1.4c0.2-13.9-0.3-27.2,2-40.5c8.5,12.9,13.5,27.5,21.2,41.2
		c5.8-3.4,11.4-6.6,17-9.9C746.8,449.4,747.5,448.7,746.4,446.7z"/>
	<path id="AR" class="st1" d="M672.7,403.4c8.7-10.3,7.7-26.9,1.3-35.6c-4.8-6.6-10.6-12.5-16.2-18.5c-1.1-1.2-3.2-2-4.9-2.1
		l-33.3-0.8c0,32.8,0,65.2,0,97.5c-0.4,0-0.7,0-1.1,0c-2.9-12.9-6.1-25.7-8.5-38.6c-3.5-18.7-6.3-37.5-9.5-56.3
		c-0.2-0.9-1.3-2.4-1.9-2.4c-9.9,0-19.9,0.2-29.8,0.5c-0.9,0-2.3,1.5-2.4,2.4c-0.8,4.5-1,9.1-1.8,13.5c-4.4,23.6-8.8,47.1-13.3,70.7
		c-1.6,8.2-3.5,16.3-5.5,25.4c5.7,0,10.9,0,16.1,0c7.1,0,7,0,7.9-7.3c0.7-5.6,1.5-11.3,2.4-17.2c6.9,0,13.5,0,20,0
		c1.9,0,2.9,0.8,3,2.8c0.5,6.3,1.2,12.6,1.6,19c0.3,5.1-0.4,4.7,4.7,4.5c13.2-0.5,26.4-1.2,39.6-1.8c0.5,0,1-0.2,0.8-0.2
		c0-8.4-0.1-16.4,0.1-24.5c0-1.4,1.2-2.8,1.9-4.2c1.1,0.9,2.3,1.8,3.4,2.8c0.5,0.5,0.7,1.3,1,2c3.2,7.1,6.4,14.2,9.7,21.3
		c0.8,1.8,1.7,3.5,2.7,5.5c6.2-2,12.1-4,18.2-6c-0.5-1.8-0.9-3.1-1.4-4.5c-4-12-8-24-11.8-36.1c-0.4-1.1,0.1-2.9,0.8-3.9
		C668.3,408.5,670.5,406,672.7,403.4z M575.2,412.7c2.6-13.2,5.1-26.3,7.7-39.4c0.6,0,1.2-0.1,1.9-0.1c2.7,12.9,5.5,25.9,8.3,39.5
		C586.8,412.7,581.4,412.7,575.2,412.7z M641.3,404.9c-1.9-12.8-1.9-25.4-0.4-38.1c6.8,1.5,12.4,8.2,13,14.7
		C654.9,393.4,647.9,403.2,641.3,404.9z"/>
	<path id="P" class="st1" d="M548.1,358.6C531.5,332,509,328.8,484.6,333c1.2,46.7,1.6,93.4-0.6,140.3c9.4,0,18.8,0,28.3,0
		c0.2-0.5,0.3-0.7,0.3-0.9c0-8,0-15.9,0-23.9c0-6.8,0-6.8,6.3-9.2c22.1-8.6,34.5-24.6,35.6-48.8
		C554.9,379.4,554.1,368.2,548.1,358.6z M513.7,415.4c-2.7-5.7-3.2-54.3-0.3-59.1c7.7,5.1,14.5,10.8,15.8,20.8
		C531.2,392.8,529.7,407.2,513.7,415.4z"/>
	<path id="C" class="st1" d="M433.4,404.6c-0.1-19.8,8.5-33.7,25.6-41.6c-4.8-5.2-9.5-10.3-14.2-15.4c-1.6-1.7-3.2-0.9-4.7,0.2
		c-7.7,5.3-14.2,11.9-18.8,20.2c-9.4,17.1-11.1,35.4-7.5,54.2c3.5,18,14.1,30.8,30,39.4c6-5.2,12-10.4,18.7-16.2
		C444.1,437.5,433.5,424.9,433.4,404.6z"/>
	<path id="I" class="st1" d="M406.7,403c-0.1-17.8,0.2-35.6,0.4-53.5c0-2.3-0.6-3.2-3-3.1c-5,0.2-10,0.1-15,0.2
		c-1.7,0-3.4,0.2-5.5,0.3c3,37.7,3.2,74.8,0.8,111.8c7.4,0,15.1,0,23.2,0c0-2.3,0-4.2,0-6.1C407.3,436,406.8,419.5,406.7,403z"/>
	<path id="S" class="st1" d="M377.3,363.9c1.5-1.3,3.1-2.4,5.1-3.9c-6.5-5.1-12.7-10.1-19.1-14.9c-0.7-0.5-3,0-3.7,0.8
		c-5.6,6.9-11.1,13.8-16.2,21c-3.9,5.6-4.7,12-2.3,18.5c1,2.8,2.2,5.5,3.6,8.1c3,5.5,6.2,10.8,9.3,16.2c2.9,5,3.2,10.3,1.7,15.6
		c-1.8,6.5-6.7,10.6-11.7,14.5c-2.4,1.8-4.7,3.6-7.7,6c6.9,4.8,13.1,9.3,19.4,13.5c0.7,0.5,2.7-0.1,3.3-0.8c3-3.4,5.9-6.9,8.6-10.5
		c5.2-7,10.6-13.9,13.3-22.5c1.8-5.7,1.6-11-1.7-16.1c-3.3-5.2-6.6-10.3-9.7-15.6c-5.7-9.5-5.4-15.3,1.6-24
		C372.9,367.6,375.2,365.8,377.3,363.9z"/>
	<path id="RAS" class="st1" d="M338.3,407.9c-3.8-5.9-7.6-11.9-11.3-18c-3.7-6.1-3.2-12.2,0.9-17.8c2.4-3.2,5.4-5.9,8.2-8.6
		c1.4-1.4,3-2.5,4.8-3.9c-7.3-5.5-14.2-10.6-21.3-15.9c-6.8,7.1-13.2,14.1-17.7,22.6c-4.5,8.7-5.2,17.5,0.6,26.1
		c3.3,5,6.5,10.1,9.4,15.4c6.6,11.7,4.6,23.1-7,31.3c-2.9,2-3.6,1.8-4.3-1.7c-3.1-15.7-6.2-31.3-9.1-47c-2.5-13.8-4.6-27.7-7.1-41.6
		c-0.2-1.1-1.6-2.9-2.5-2.9c-8.1-0.4-16.3-0.7-24.4-0.5c-4.9,0.1-6.5,1.9-7.4,6.9c-0.9,4.8-1.4,9.7-2.3,14.4
		c-4,20.7-8.1,41.4-12.3,62.1c-0.9,4.4-2.2,8.8-3.5,14c-0.8-1.4-1.2-2-1.5-2.7c-2.4-6.9-4.7-13.8-7-20.7c-1.3-4-0.4-7.4,2.1-10.7
		c2.3-2.9,4.6-5.8,6.5-9c5.9-9.8,6.2-19.8,0.5-29.8c-5-8.8-12.6-15.2-19.4-22.4c-0.5-0.5-1.5-0.6-2.3-0.7c-3.8-0.3-7.7-0.8-11.6-0.9
		c-7.7-0.1-15.4,0-23.2,0c0.5,38,1,76.1,1.5,114.2c7.2,0,14.1,0,21.7,0c0-5-0.1-9.7,0-14.5c0.1-4.1,0.5-8.3,0.9-12.4
		c0.1-0.7,0.7-1.4,1.1-2.1c0.7,0.5,1.6,0.8,2.2,1.5c0.7,0.8,1.1,1.8,1.6,2.7c3.2,7,6.3,14.1,9.5,21.1c2.5,5.5,0.8,5.4,7.3,2.9
		c2.8-1.1,5.7-3.2,8.5,0.1c0.3,0.4,1.2,0.3,1.8,0.3c5.2-0.2,10.4-0.7,15.6-0.5c3.8,0.1,4.4-2.1,5-4.9c0.1-0.5,0.1-1.1,0.2-1.6
		c0.8-6.1,1.6-12.1,2.4-18.6c8,0.5,15.7,1.1,23.4,1.6c0.7,6.8,1.2,13.3,1.9,19.7c0.5,5.4,0.6,5.5,5.9,5.6c5.9,0.1,11.9,0,18.1,0
		c-0.3-2.8-0.7-5.8-1.1-9.3c5,3.4,9.5,6.6,14.2,9.7c2.2-3.1,4.4-6,6.5-8.9c6.2-8.7,12.4-17.3,15.7-27.7
		C342,419,341.8,413.3,338.3,407.9z M210.2,392.4c-3.1,4.4-6.9,8.4-10.4,12.5c-0.4-0.2-0.8-0.3-1.2-0.5c-1.7-11.9-2.2-23.8-1.1-35.8
		c0.2-2.4,2-3.3,3.7-1.5c3.5,3.5,7.3,7.1,9.8,11.4C213.7,382.9,213.1,388.2,210.2,392.4z M260.4,411.5c-0.2-5.2,5.7-30.9,8.4-35.2
		c3.2,11.8,5.5,23.2,7.6,35.2C270.7,411.5,265.6,411.5,260.4,411.5z"/>
	<path id="U" class="st1" d="M147.6,349.2c0.1,21.8,0.3,43.5,0.2,65.3c0,4.6-0.7,9.3-1.1,13.9c-0.2,2.6-1.9,3.8-4.3,3.5
		c-3.6-0.4-7.2-1.3-10.8-1.7c-2.9-0.3-3.4-1.9-3.3-4.5c0.2-17.4,0.4-34.8,0.3-52.2c0-8.3-0.7-16.5-0.9-24.8c-0.1-2.3-1.1-3-3.4-3
		c-4.7,0.1-9.4-0.2-14.1-0.3c-2.6,0-5.2,0-7.8,0c0,0.6,0.1,1.1,0.1,1.6c1,12.4,2.5,24.7,2.9,37.1c0.6,18,0.4,36.1,0.7,54.1
		c0,1.6,0.9,3.4,2,4.6c6.4,7,14.7,11,22.8,15.5c3.4,1.9,6.2,2.5,9.3-0.3c1-0.9,2.4-1.4,3.6-1.9c3.4-1.5,4.2-1,4.5,2.7
		c0.1,2.1,0.7,2.9,2.9,2.3c5-1.2,9.9-2.4,15-3.1c2.9-0.4,3.4-1.7,3.5-4.3c0.2-16.4,0.5-32.9,0.9-49.3c0.4-15,0.8-29.9,1.3-44.9
		c0.2-4.7,0.5-9.4,0.7-13.9c-8.4,0-16.4,0-24.8,0C147.6,347.2,147.6,348.2,147.6,349.2z"/>
	<path id="J" class="st1" d="M93.1,337.3c-9.6-1.6-19.2-3.2-29.3-4.9c0,1.7-0.1,3.2,0,4.6c0.7,14.2,1.6,28.4,2,42.6
		c0.5,17.5,0.7,35,1,52.5c0,2-0.3,4-0.7,6c-0.9,4.5-2.6,5.9-7.1,5.9c-4.7,0.1-9.4,0.1-14.1,0c-2.4-0.1-3.1,0.7-2.9,3.1
		c0.5,6.9,0.8,13.8,1.1,20.6c0.2,3.8,0.7,4.8,4.4,5.1c8.9,0.5,17.7,1,26.6,1.1c4.2,0,8-1.6,10.9-4.9c5.5-6.2,9.7-13,9.3-21.8
		c-0.1-2,0-4,0.1-6c0.8-32.9,1.7-65.7,2.6-98.6C97.2,339.4,96.2,337.8,93.1,337.3z"/>
</g>
<g id="Red">
	<path class="st2" d="M363.1,515.9c-0.1,1.7-0.2,3.3-0.3,5c0.5,0.1,0.9,0.2,1.4,0.3c1-1.1,2-2.2,3.6-4
		C365.8,516.7,364.5,516.3,363.1,515.9z"/>
	<path class="st2" d="M323.6,510.3c-2.9,2.1-2.9,2.6,0,4.5C323.6,513.2,323.6,511.9,323.6,510.3z"/>
	<path class="st2" d="M350.3,525.9c-2.5,1.5-3.6,3.3-2.5,6C351,530.6,351.6,529.3,350.3,525.9z"/>
	<path class="st2" d="M336,508.3c-0.6,0.1-1.2,0.2-1.8,0.3c-0.1,1.4-0.3,2.7-0.4,4.1c1.5,0,3,0,4.6,0
		C337.5,511.3,336.8,509.8,336,508.3z"/>
	<path class="st2" d="M319.3,525.3c0.1,0.7,1.2,1.4,2,1.9c2.2,1.3,4.2,1,6.5-0.2c1.3-0.7,4.4-0.6,4.6-0.1c0.8,2.5,2.4,1.9,4,1.5
		c1.6-0.3,2.9-0.7,3.5,1.7c0.3,1.2,2.2,2.1,2.7,0.2c0.4-1.7,0.1-3.9-0.7-5.4c-0.6-1.1-2.7-1.5-4.1-1.9c-0.9-0.3-1.9,0-3.6,0.1
		c1.1-2,1.9-3.4,2.7-4.7c-0.1-0.2-0.3-0.4-0.4-0.6c-1.9,0.8-3.7,1.5-5.2,2.1c-0.9-2-1.5-3.7-2.3-5.2c0-0.1-1.5,0.4-2.1,0.9
		c-2,1.9-2,4.3-1.3,7.1c-0.6-0.5-1.2-1.2-1.9-1.5c-1.5-0.6-3.1-1-4.6-1.5C319.1,521.5,319,523.4,319.3,525.3z"/>
	<path class="st2" d="M309.7,531.9c1.4-1.1,3.3-2.4,3.6-3.9c0.2-1.2-1.7-2.8-2.7-4.3c-1.4,2.3-2.5,3.5-3.1,5
		c-0.3,0.7-0.2,1.9,0.2,2.6C307.8,531.8,309.3,532.2,309.7,531.9z"/>
	<path class="st2" d="M371,521.3c-2.3,2.4-2.2,3.3,0.7,5.4C373.1,524.5,373.1,522.8,371,521.3z"/>
	<path class="st2" d="M430.3,533.3c0.6-2.9,1-4.8,1.7-7.8c-2.1,0.9-3.6,1.5-4.9,2C428.2,529.6,429,531,430.3,533.3z"/>
	<path class="st2" d="M428,516.3c-0.8,0.2-2,1.6-1.9,1.8c1,1.9,2.3,3.6,4.1,6.1c1.3-1.7,2.2-2.4,2.4-3.3
		C432.9,519,429.8,515.9,428,516.3z"/>
	<path class="st2" d="M437.9,525.2c-0.2,0.1-0.1,1,0.1,1.4c1.2,2.3,6.9,4.5,10.5,3.3c-1.6-1.5-2.6-2.9-3.9-3.6
		c-1.5-0.8-3.4-1.1-5.1-1.5C439.1,524.8,438.4,524.9,437.9,525.2z"/>
	<path class="st2" d="M421.4,521.6c-1-1.1-2.1-2.1-3.1-3.2c-0.5,0.4-1,0.8-1.5,1.2c0.7,1.1,1.3,2.3,2.3,3.2
		C419.3,523,420.6,522,421.4,521.6z"/>
	<path class="st2" d="M302.8,519.3c-2.6,0-4.9,0-7.9,0C297.5,522.4,300.6,522.2,302.8,519.3z"/>
	<path class="st2" d="M389.7,523.8c-0.4-0.5-0.7-1.1-1.2-1.4c-0.5-0.4-1.6-0.4-1.8-0.9c-1.6-3.2-2.3-0.8-3.8,0.8
		c1.9,0.9,3.3,1.8,4.8,2.3C388.2,524.8,389,524.1,389.7,523.8z"/>
	<path class="st2" d="M300.4,526.7c0.7,0.5,1.3,1.4,2,1.5c0.5,0.1,1.1-0.8,2.1-1.5c-1.1-0.8-1.8-1.7-2.4-1.7
		S300.9,526.1,300.4,526.7z"/>
	<path class="st2" d="M275.7,282.3c-0.7-2.4-1.9-4.8-2.8-7.2c-2,1-4,1.9-6.6,3.2c2.5,2.5,4.3,4.3,6.2,5.9c0.6,0.5,1.7,0.6,2.5,0.9
		C275.2,284.2,275.9,283.1,275.7,282.3z"/>
	<path class="st2" d="M205.1,314.7c-0.5,1.3-0.4,2.8,1.1,3.3h8.8c-2.2-3.5-3.9-6.2-6.1-9.7C207.2,310.9,205.9,312.7,205.1,314.7z"/>
	<path class="st2" d="M229.9,315.9c-0.4-2.9-0.8-5.8-1.3-8.8c-0.4-2.8-0.9-5.5-1.4-8.7c-0.8,0.7-1.3,0.9-1.4,1.2
		c-1.1,2.5-2.4,4.7-5.6,4.9c-0.3,0-1.1,1.8-0.8,2.2c2.5,3.7,5.1,7.4,7.8,10.9c0.1,0.1,0.2,0.2,0.4,0.3h1.9c0.1-0.1,0.2-0.3,0.3-0.6
		C229.9,316.9,229.9,316.3,229.9,315.9z"/>
	<path class="st2" d="M300.3,297.2c0,3.7,0,7.5,0,11.7C306.8,304.6,306.6,301.1,300.3,297.2z"/>
	<path class="st2" d="M291.7,242.7c3-3,3.3-6.6,1-10.1C292.3,236,292,239.4,291.7,242.7z"/>
	<path class="st2" d="M282.6,282.7c-1.3,9.7,2.1,15.7,11.3,19.1C295.4,293.9,290.5,285.9,282.6,282.7z"/>
	<path class="st2" d="M293.3,317.9c0.1-0.4,0.2-0.8,0.3-1.2c-2.3-1.6-4.6-3.3-6.9-4.9c-0.4,0.2-0.7,0.4-1.1,0.6
		c0.5,1.8,0.4,4.7,1.5,5.3c0.2,0.1,0.4,0.2,0.6,0.3L293.3,317.9C293.2,317.9,293.2,317.9,293.3,317.9z"/>
	<path class="st2" d="M289.5,259.9c-1.8-7.6-7.6-15.1-12.5-16c3,4.9,5.8,9.6,8.6,14.3c-0.2,0.2-0.4,0.3-0.6,0.5
		c-2.2-1.4-4.3-2.8-6.5-4.2c-0.2,0.3-0.5,0.6-0.7,0.8c3.5,5.6,7.9,10.3,13.9,14.7c0-4.9,0-8.9,0-13c-0.2,0-0.5-0.1-0.7-0.1
		C290.6,257.8,290.1,258.7,289.5,259.9z"/>
	<path class="st2" d="M446.2,521.2c-1.3-1.1-2-1.8-2.9-2.3c-0.1-0.1-1.4,1.3-1.3,1.6c0.3,0.9,1.1,1.7,1.8,2.2
		C444.2,522.9,445.1,522,446.2,521.2z"/>
	<path class="st2" d="M276.8,306.3c-4.8-3.2-9.6-6.3-14.5-9.3c-2.5-1.6-3.5-1-3.2,2c0.5,4.8,1.5,9.6,2.3,14.3
		c0.3,1.9,1.2,3.2,2.5,3.9c0.4,0.3,0.8,0.5,1.2,0.7h17.7C282.2,313.1,280.8,309,276.8,306.3z"/>
	<path class="st2" d="M292,525.4c0.1,0.1,1.4-1.2,1.3-1.5c-0.4-0.9-1.2-1.7-2.2-3c-0.7,1.3-1.5,2.2-1.3,2.5
		C290.3,524.2,291.1,524.8,292,525.4z"/>
	<path class="st2" d="M254.1,314.4c-1.7-6.2-3.4-12.4-5.3-18.5c-0.2-0.6-1.6-1.3-2.2-1.1c-5.7,1.3-9.9,6.4-9.9,12.5
		c-0.1,7.7,0.2,10,3.3,10.6h13.6C254.8,317.7,254.7,316.9,254.1,314.4z"/>
	<path class="st2" d="M625.1,198.4c-12.7-29.9-30.8-56.8-53.9-79.9c-23.1-23.1-50-41.2-79.9-53.9c-31-13.1-63.9-19.7-97.8-19.7
		s-66.9,6.6-97.8,19.7c-29.9,12.7-56.8,30.8-79.9,53.9s-41.2,50-53.9,79.9c-3,7-5.6,14.2-7.9,21.4c8.5,2,8.9,2.2,11.8,6.8
		c1.2,1.9,1.8,4.3,2.9,6.3c0.4,0.8,1.4,1.7,2.1,1.7c6.4,0,10.1-4.6,8.7-10.7c-1.2-5.2-0.1-7.5,4.7-9.6c1.8-0.8,3.7-1.4,5.6-1.8
		c6.1-1.5,8.1-0.2,9.4,6c0.2,0.8,0.7,2.1,1.2,2.2c0.9,0.1,2-0.4,2.7-1c2-1.9,2.2-4.3,1.9-7c-0.4-3.8,1.3-7.4,3.8-8.4
		c3.5-1.4,5.7,0.8,7.9,3c1.7,1.7,3.3,3.5,5.1,5.2c1.3,1.2,2.6,0.8,3.1-0.9c0.4-1.2,0.6-2.5,0.7-3.7c0.1-2.4,0-4.9,0.2-7.3
		c0.2-2.5,1.5-3.5,3.8-2.2c2.1,1.1,4.2,2.3,6.2,3.6c2.3,1.6,4.6,3.3,7.1,5.1c0.2-0.1,0.4-0.2,0.6-0.5c1.5-2.9,3.4-5.6,3-9.3
		c-0.3-2.3,0.3-4.7,0.6-7.1c0.1-1.1,0.8-1.7,1.8-2c0.9-0.3,1.4,0.4,1.9,1c0.7,0.9,1.4,1.7,2.2,2.5c0.3,0.2,0.5,0.4,0.8,0.7
		c0.9,0.8,1.8,1.6,2.6,2.5c0.4,0.4,0.8,0.8,1.2,1.3c1.2,1.4,2.4,2.9,3.4,4.5c0.4,0.6,0.7,1,1.1,1.4c0.3-0.2,0.7-0.4,1.2-0.8
		c3.1-2.5,4.3-6,5-9.7c0-0.3-0.1-0.6-0.3-0.8c0-1.4-0.1-2.8,0.8-4.1c1-1.5,2.3-1.7,3.4-0.3c0.7,0.9,1.3,2,1.9,3
		c1.4,1.8,2.6,3.9,4,5.8c0.7,0.9,1.5,1.7,2.3,2.5c0.5-0.2,0.9-0.6,1.3-1.2c0.3-0.5,0.5-0.9,0.6-1.4c0-0.4,0-0.8,0-1.2
		c0-0.1-0.1-0.2-0.1-0.4c-0.3-1-0.1-1.9-0.1-2.8c0-0.3-0.1-0.6-0.3-0.7c-0.2-0.8-0.4-1.6-0.7-2.5c-0.3-1-0.5-1.9,0.6-2.4
		c1-0.5,2.4,0.1,3,1.2c0.6,1,1.1,2,1.8,3c1.3,1.2,2.6,2.4,4,3.6c0.4-0.1,0.7-0.2,1.1-0.5c0.3-0.2,0.5-0.4,0.7-0.7
		c-0.2-1.1-0.5-2.1-0.8-3.1c-1.2-2.2-1.9-4.8-3.5-6.8c-0.4-0.5-0.4-1.2-0.5-1.9c-0.1-1.4,1-2.3,2.3-1.8c1,0.4,1.7,1.1,2.4,1.9
		c0.8,1,1.6,2,2.4,3l0.1,0.1c0.4,0.3,0.7,0.6,1.1,0.8c0.9,0.4,1.7,0,2.3-1c1.2-2,2.4-4,3.4-6.2c0.7-1.6,0.2-3.4-0.4-5
		c-0.6-1.8-1.3-3.6-1.9-5.3c-0.9-2.4-0.6-3.4,1.2-4.6c1.3-0.8,3.1-0.6,4.4,1c0.8,0.9,1.7,1.7,2.4,2.7c0.2,0.1,0.4,0.3,0.6,0.4
		c0.6,0.4,1.3,0.7,1.9,1.1c0.5-0.2,1-0.7,1.6-1.4c0.4-0.7,0.7-1.4,0.7-2.2c-0.1-0.8-0.4-1.6-0.8-2.5c-0.7-1.3-1.4-2.5-2-3.8
		c-0.8-1.3-1.6-2.5-2.2-3.9c-0.1-0.2-0.3-0.4-0.4-0.6c-0.4-1-0.1-2,0.1-3c0.3-0.2,0.7-0.4,1-0.6c3.1,0.2,5.4,1.7,7.5,3.9
		c0.7,0.7,1.5,1.2,2.3,1.7c0.4,0.2,0.7,0.4,1.1,0.6c0.4,0.1,0.7,0.1,1.1-0.2s0.6-0.8,0.7-1.3c-1-2.5-2-5.1-3-7.6
		c-0.9-1.4-2-2.8-2.5-4.6c-0.2-0.6-0.6-1.3,0.1-1.8c0.8-0.5,1.5-1,2.6-0.4c1.4,0.8,2.2,2.2,3.4,3.2c0.7,0.3,1.3,0.5,2,0.8
		c0.4-0.1,0.8-0.3,1.2-0.6c-0.3-1.1-0.6-2.2-1-3.2c-0.5-0.7-1-1.4-1.3-2.3c-1.6-2.4-3.5-4.6-5.1-7.1c-0.1-0.2-0.2-0.3-0.3-0.5
		c-0.8-0.8-1.4-1.7-1.7-2.8c0.2-0.8,0.3-1.6,0.2-2.5c1.7-1.9,4.6-2.2,7.3-0.6c2.3,1.3,4.7,2.7,7.1,3.9c0.8,0.3,1.5,0.5,2.3,0.7
		c1.3,0,2.4-0.7,3.3-2c0-0.4-0.1-0.8-0.2-1.3c-0.3-1-0.6-1.9-0.8-2.9c-0.7-1.4-1.1-3-1.5-4.5c-1.3-3.5-3-6.9-5.7-9.7
		c-0.4-0.2-0.8-0.5-1.1-0.8c-1-1-1.1-2.4-0.2-3.5c1.6-1.9,3.6-2.8,6-2s4.8,1.5,6.6,3.3c4.3,1.8,8.8,3.2,13.4,4.4
		c1.2,0.3,3-1.1,4.1-2.1c0.3-0.3-0.7-2.2-1.3-3.3c-0.2-0.3-0.3-0.6-0.5-0.9c-0.8-0.7-1.5-1.5-1.7-2.6c-0.1-0.2-0.2-0.3-0.4-0.5
		c-1.4-1.8-2.9-3.7-4.5-5.3c-0.6-0.6-1.7-0.8-2.5-1.3c-1.2-0.8-1.9-1.6-2.2-2.5c0,0,0,0,0-0.1v-0.1c-0.2-1,0-2.1,0.9-3
		c3.2-3.4,8.2-3.7,12.1-1c1.1,0.8,2.2,1.6,3.3,2.3c0.2,0.1,0.4,0.2,0.6,0.3c2.9,1.6,5.8,3.3,8.8,4.8c1.8,0.9,3,0.9,2.5-1.9
		c-0.1-0.6-0.2-1.3-0.4-1.9c-0.4-1-0.7-2-0.8-3.1c-1-3.1-2.4-6-4.5-8.6c-0.2-0.2-0.4-0.3-0.6-0.5c-0.9-0.6-1.6-1.6-2-2.6
		c0.2-0.6,0.3-1.3,0.1-1.9c0.3-0.5,0.5-1.3,1.2-1.5c0.3-0.2,1.1-0.2,1.9,0c0.7,0.1,1.4,0.2,1.9,0.6c3.2,1.1,6.4,2.1,9.3,3.7
		c0.6,0.3,1.2,0.7,1.7,1c3.9,2.3,7.5,1.3,11.2-0.1c2.2-0.8,4.4-1.8,6.7-2.6c0.3-0.1,0.6-0.2,0.9-0.3c1.8-0.9,3.7-1.3,5.7-1.6
		c0.4-0.1,0.8-0.2,1.2-0.3c2.9-0.8,5.8-1.6,8.7-2.4c1.7-0.5,3.4-0.9,5.1-1.3c0.3-0.1,0.6-0.2,0.9-0.4c1.2-0.5,2.3-0.7,3.5-0.8
		c1.2-0.4,2.5-0.7,3.7-1.1c3.1-1,6-2.5,9-4c1.3-0.6,2.4-1.8,3.7-2.3c1.5-0.6,2.8-0.8,4.1-0.6c2-0.1,3.6,0.6,5,2.4
		c0.1,0.2,0.3,0.4,0.5,0.6c0.3,0.3,0.6,0.5,0.8,0.8c2.6,2.5,5.3,4.4,9.1,4.9c3,0.4,5.1,1.1,6.6,2.5c2.2,1,3.5,2.9,4,5.6
		c0.3,1.7,1.3,3.3,0.8,5.2c0,0.1,0,0.2,0,0.2c0.2,0.2,0.5,0.3,0.8,0.4l-0.7,0.1c0.2,0.6,0.8,0.9,1.4,1.1c0.7,0.2,1.6,0.5,2.2,0.2
		c2.4-0.9,4.1,0.7,5.9,1.6c2,1,3.4,2.6,4.1,4.7c0.8,2.5,2.7,3.9,4.7,5.3c2.3,1.7,4.9,3,6.5,5.5c1,1.6,2.7,2.5,4.6,3
		c2.8,0.8,4.9,2.7,6.6,4.9c3.6,4.3,7.8,7.7,12.8,10.3c2.1,1.1,4.2,2.2,6.2,3.8c2.6,2,5.7,3.6,8.7,5.1c1.3,0.6,2.4,1.5,3.5,2.3
		c4.3,3,8.7,5.7,12.4,9.4c0.2,0.4,0.7,0.5,1.1,0.6c0.1,0.1,0.3,0.2,0.4,0.2c0.2,0.1,0.5,0.3,0.7,0.4c0.1,0.1,0.2,0.2,0.4,0.3
		c0.7,0.5,1.4,0.6,2.2,0.8l0,0c0.5,0.5,1.2,0.5,1.8,0.5c3.7,1.4,7.2,3.3,10.5,5.5c0.2,0.2,0.5,0.3,0.8,0.2c0.4,0.1,0.7,0.2,1.1,0.3
		c0.2,0.2,0.3,0.4,0.5,0.6c2.6,1.5,5.4,2.5,7.7,4.3c2.6,2,5.5,3.6,6.8,6.9c0,0.1,0,0.2,0.1,0.3c3.6,3.1,4.7,8,8.4,11.2
		c2.4,2.1,4.5,4.8,5.9,7.9c1.1,2.4,2.7,4.5,3.5,7.1c1.2,3.4,0.4,6.7-1,9.7c-2.1,4.3-5.4,7.9-7.5,12.2c-1,2-2.8,3.5-4.4,5.1
		c-2.6,2.6-5.9,1.5-6.8-1.9c-1-3.7-3.6-6-5.5-9c-0.5-0.8-1.1-1-1.9-0.3c-0.8,0.7-1.6,1.3-2.8,1.1c-0.1-0.3-0.4-0.4-0.7-0.4
		c-0.3-0.6-0.6-1.2-0.9-1.7c-0.7-1-1.7-1-2.3,0.1s-1.3,2-2.6,1.7s-2.3-0.8-2.7-2.5c-0.3-1.5-0.9-1.6-2.2-0.7
		c-0.4,0.3-0.7,0.6-1.1,0.9c-1.3,0.7-2.3,0.4-3-0.9c-0.2-0.3-0.3-0.7-0.4-1c-1.1-2.3-1.5-2.5-3.4-1c-1,0.8-2.1,1.2-3.1,1.1
		c-3.2-0.3-6.5,0.9-9.6-0.7c-0.2-0.1-0.4-0.1-0.5-0.1c-3.9,0.2-7.2-1.8-10.7-2.9c-4.1-1.3-8.3-2.4-12.5-3.6c-1.4-0.4-2.8-1-4-2
		c-0.1-0.3-0.3-0.4-0.6-0.3c-3.8,0.1-6.7-2.3-9.7-4.1c-3.7-2.2-7.7-3.7-11.5-5.7c-0.4-0.2-0.9-0.3-1.4-0.3c-2.3-0.1-4-1.3-5.4-3.1
		c-1.5-1.9-3.3-3.5-5.5-4.7c-1-0.5-1.9-0.6-2.9-0.8c-0.2-0.3-0.5-0.3-0.7,0c-1.5,0.3-3,0.6-4.5,0.9c-0.3-0.1-0.6,0-0.7,0.3
		c-0.5,0-1,0-1.6,0c-0.2-0.1-0.3-0.1-0.4,0.2c-1.4,0.4-2.6-0.2-3.8-0.7c-1.8-0.4-3.7-0.9-5.5-1.6c-3.8-1.5-7.4-1.5-11,0
		c-1.3,0.7-2.5,1.6-3.8,2.4c-1.7,1-3.5,1.4-5.4,0.8c-0.3,0.1-0.7,0.2-1,0.2c-0.7,0.2-1.5,0.3-2.2,0.4c-0.1,0.3-0.1,0.5-0.2,0.8
		c0.1,0.1,0.2,0.3,0.3,0.4c1.2,0.5,2.3,1.1,3.5,1.6c0.8,0.1,1.7,0.1,2.5,0.1c0.1,0.1,0.1,0.2,0.2,0.2c3.6,1.4,6.4,4,9.1,6.7
		c1.4,1.4,2.8,2.8,4.1,4.2c1.3,1.4,1.6,3.5,1.9,5.2c0.5,2.9,1.9,5.5,3,8.1c0.3,0.8,0.5,1.6,0.4,2.4c-0.3,1.5-1.5,2.3-2.9,1.8
		c-0.3-0.1-0.7-0.3-1-0.4c-0.5-0.1-1-0.3-1.4-0.5c-1.3-0.7-2.2-2-3.5-2.7c-2.6-1.4-4.4-0.4-4.1,2.6c0.1,0.7,0.2,1.3,0.4,1.9
		c0.5,1.6,1.3,3.1,2.6,4.4c0.4,0.4,0.6,0.9,0.9,1.4c-0.3,1-0.6,2,0,3c0.8,3.3,1.8,6.5,3.1,9.7h-0.1c0.4,0.9,0.8,1.8,1.3,2.6
		c6.1,10.1,14.8,18.1,23.1,26.3c9.7,9.5,20.5,17.1,33.5,21.1c2.1,0.6,4.2,1.7,5.7,3.2s3.3,3.8,3.1,5.6c-0.1,1.4-2.8,3.2-4.7,3.7
		c-4,1-8.2,1.5-12.3,1.9c-11.3,1.1-21.9-0.4-30.8-8.4c-3.7-3.3-7.5-6.5-11.1-9.9c-7.9-7.4-15.6-15-25.4-20
		c-9.1-4.7-18.2-9.6-27-14.7c-7-4-14-8.2-19-14.9c-2.3-3-4.3-6-5.1-10c-0.8-3.8-2.9-7.2-4.4-10.8c-0.3,0.1-0.7,0.1-1,0.2
		c-1.3,5.2-2.7,10.4-4,15.6c-0.5-0.1-0.9-0.1-1.4-0.2c-0.4-4.9-0.8-9.9-1.2-15.3c-1,1.6-1.6,2.7-2.3,3.7c-0.2-0.1-0.5-0.1-0.7-0.2
		c0-2.4,0-4.8,0-7.2c-0.3,0-0.6,0-0.9-0.1c-1.5,9.6-3.1,19.2-4.6,28.8c-0.2,0-0.4,0-0.6,0c-0.6-5.8-1.1-11.6-1.7-17.3
		c-0.4,0-0.8-0.1-1.2-0.1c-0.7,1.2-1.7,2.4-2.2,3.7c-3.1,7.7-6.2,15.5-9.3,23.2c-0.5,1.2-1.3,2.4-2,3.6c-0.4-0.1-0.8-0.3-1.2-0.4
		c1-5.4,2-10.9,3-16.3c-2.3,3.6-4,7.4-5.6,11.3c-0.9,2.1-1.3,4.5-2.5,6.4c-3.4,5.3-7,10.5-10.6,15.7c-0.6,0.8-1.3,1.5-2,2.2
		c-0.3-0.2-0.5-0.4-0.8-0.6c1-2.7,2-5.5,3.1-8.2c2-4.5,4.3-8.9,6.1-13.6c1.9-5-1.1-12.5-6.2-14.6c-0.8,13.5-3.8,26.2-12.4,37.5
		c0.3-2.2,0.5-3.9,0.8-5.6c1.2-7.8,1.2-15.7-0.4-23.4c-0.3-1.4-1.1-2.7-1.6-4.1c-0.3,0.1-0.6,0.1-0.9,0.2c-0.2,1-0.6,1.9-0.7,2.9
		c-0.2,2.1-0.4,4.2-0.5,6.3c-0.1,3.3-1.8,5.2-4.8,5.8c-3.6,0.7-5.1,3-6.1,6.4c-1.3,4.5-0.8,8.3,2.1,11.9c1.1,1.4,1.8,3.2,2.7,4.9
		c-0.3,0.2-0.5,0.4-0.8,0.6c-1.1-0.5-2.2-1-3.3-1.6c-2-1-3.3-0.8-3.3,1.9c0,4.7-0.1,9.3,0,13.9c0,1.1,0.5,2.4,1.2,3.1
		c2.6,2.7,5.4,5.2,8.8,8.3c0.8-1.9,1.6-3.7,2.5-5.4c0.7-1.4,1.6-2.8,2.7-4c1-1.1,2.3-1.4,3.6-0.6c1.3,0.8,2.7,1.6,3.5,2.8
		c1.8,2.9,4.4,3.3,7.3,3.2c0.6,0,1.3,0,1.9,0.1c1.1,0.1,2.2,0.3,3-0.9c0.2-0.4,1.1-0.3,1.6-0.5c1.5-0.5,3.4,0,4.2-1.9
		c1.7-4.1,4.8-5.8,9-5.8c0.2,0,0.4-0.1,0.6-0.1c3.8-0.3,6.2-3.3,9.4-4.9c-0.4-0.5-0.5-0.8-0.8-0.9c-2.4-1.9-2.4-3.8-0.9-6.5
		c1.9-3.2,1.7-3.3-1.5-5.4c-3.7-2.4-4.1-5-1.4-8.4c1-1.2,2.1-2.3,3.3-3.3c3.9-3.1,8.2-5.7,12.9-7.4c2-0.7,4.1-1.2,6.2-1.5
		c5.4-0.6,10.6,2.6,12.1,7.3c-3.1,1.1-5.6,1.6-8.6,0.8c-3.5-0.9-6.3-0.2-8.8,2.3c-1.7,1.7-3.8,2.5-6.5,1c0.7,3.2,1.3,6,2,8.9
		c0.2,0.1,0.3,0.1,0.5,0.2c1.5-1.6,3-3.2,4.5-4.7c0.5-0.5,1-1.1,1.6-1.2c3.8-0.7,7.7-1.4,11.6-1.8c2.9-0.3,5.9-0.2,8.6,1.2
		c2.9,1.4,3.9,4.2,2.7,6.9c-3.2-0.4-6.4-0.6-9.6-1.1s-5.6,0.6-7.8,2.9c-2.1,2.2-4.3,4.5-8,3.3c0.1,1.9,0.3,3.6,0.4,5.2
		c-3.2,0.4-4.6,1.4-4.8,3.5c-0.2,2.2,1.8,2.6,3.2,3.5c-1.4,3.4-2.8,6.8-5.4,9.5c-0.9,0.9-2,1.8-3.2,2.3c-3.2,1.3-6.8,1.8-9.7,3.6
		c-2.6,1.6-4.9,1.1-7.4,0.7c-0.7-0.1-1.5-0.3-2.2-0.4c-3-0.5-4.1,0-5.6,2.5c-3.2-1.8-4.6-1.5-5.9,1.2c-1.1,2.4-1.5,5-1.2,7.6
		c0.2,1.3,0.8,2.4,2.1,2.8c1.3,0.5,1.7-0.7,2.3-1.4c0.7-0.8,1.3-1,2.3-0.4c1.6,0.9,3.4,1.6,5,2.3c2-2.7,2.3-2.9,5.7-3.1
		c0.4,0,0.9-0.1,1.3-0.1c3.5,0.1,5.7-1.3,6.3-5c0.3-1.8,1.4-2.8,3.2-3.1c1.3-0.2,2.3-0.8,2.7-2.2c0.1-0.4,0.7-0.8,1.1-0.8
		c2-0.4,4.1-0.8,6.1-1.2c1.8-0.4,3.4-1.3,3.7-3.1c0.3-2.3,1.7-3,3.5-3.5c0.6-0.2,1.2-0.5,1.8-0.7c0-0.3,0-0.4,0-0.6
		c-1.1-5.4,0.5-8,6-8.5c8.9-0.7,17.2,1.3,24.9,5.8c2.4,1.4,4.3,3.4,5.4,6c0.2,0.5,0.3,1,0.6,1.9c-3.4-1.2-6.3-2.2-9.3-3.4
		c-4.4-1.7-8.8-1.8-13.1,0.1c-3,1.3-4.7,3.9-4.5,7.1c1.3-0.1,2.6-0.1,3.9-0.4c1.8-0.5,3.6-1.4,5.4-2c1.5-0.5,2.9-1.2,4.4-1.5
		c3.4-0.7,6.1,0.7,7.7,3.8c1.1,2.3,2.6,4.2,4.7,5.6c0.5,0.3,1,0.8,1.1,1.3c0.7,4,1.3,8-0.5,12.1c-1.6-2.6-3.4-5.1-4.7-7.8
		c-1.5-3.1-3.5-4.5-6.9-4.4c-3.9,0.1-7.7-1-11.6,0.1c-1.6,0.4-2.6,1.1-3.5,2.4c-0.8,1.1-2.1,2.2-3.3,2.4c-2.9,0.4-5.7,0-7.9-2.4
		c-0.3-0.4-0.9-0.6-1.5-1c-0.3,1.8-0.7,3.3-0.9,4.9c-0.1,1.1-0.6,1.6-1.7,2c-4.5,1.4-9,3-13.5,4.5c-3.5,1.1-6.4,3.1-8.8,5.8
		c-0.1,0.1-0.2,0.2-0.3,0.4h294.6c0.6-7.2,0.9-14.4,0.9-21.7C644.9,262.3,638.2,229.4,625.1,198.4z M572,209.1c0.3-0.4,1.4-0.2,2,0
		c0.2,0.1,0.4,1.3,0.2,1.6c-2.1,2.2-4.2,4.3-6.3,6.4c-0.4-0.4-0.8-0.8-1.2-1.2C568.4,213.6,570.1,211.3,572,209.1z M528.3,199.7
		c0.6,0.5,0.2,3.1-0.5,4c-3.6,4.4-7.6,8.5-11.4,12.7c-0.4-0.3-0.8-0.6-1.2-0.9c2.9-4.9,5.6-9.9,8.6-14.8
		C524.8,198.9,526.8,198.3,528.3,199.7z M516.7,196.5c0.8-0.3,2.4,0.1,3,0.7c0.6,0.6,0.7,2.4,0.3,3.1c-3.2,4.8-7,9-11.7,12.3
		c-0.3-0.1-0.5-0.3-0.8-0.4c0.1-0.7,0.2-1.4,0.5-2c1.9-3.7,3.7-7.5,5.8-11.1C514.4,198,515.6,196.9,516.7,196.5z M509.1,236.4
		c-0.1,1.1-0.1,2.2-0.4,3.2c-1.6,5-3.3,9.9-5.2,14.8c-0.5,1.4-1.7,2.8-2.9,3.5c-1,0.6-2.7,0.1-4,0.2c0.1-1.2-0.1-2.5,0.4-3.5
		c3.2-5.7,6.6-11.2,10-16.8c0.4-0.6,0.9-1.1,1.3-1.7C508.6,236.3,508.8,236.4,509.1,236.4z M510.8,193.6c0.5,0.8,0.7,1.8,0.8,2.7
		c0.1,4.2-7,14.1-11.2,15.7c2.4-6.3,4.7-12.3,7.2-18.3C508.4,191.7,509.8,192,510.8,193.6z M502.9,190.4c2.1,3.6-1.1,9.4-6.6,12.4
		C498.7,198.9,498.7,193.7,502.9,190.4z M496.4,189.1c0.2-0.2,0.5-0.3,0.8-0.4c0.7-0.2,1.2-0.2,1.5,0h0.1v0.1
		c0.4,0.4,0.5,1.1,0.2,2.2c-1.2,1.6-2.3,4-4.4,5.5c-0.1,0.1-0.2,0.2-0.4,0.2l-0.1,0.1c-0.1,0-0.1,0-0.2-0.1c-0.3,0.1-0.6,0-0.9-0.3
		l0,0l0,0l0,0c-0.3-0.4-0.1-0.9,0.1-1.2s0.5-0.7,0.7-1.1c0.5-1.6,1.1-3.2,1.9-4.6C496,189.3,496.2,189.2,496.4,189.1z M490.4,189.9
		c0.3-0.5,0.6-1,0.9-1.4c0.4-0.5,0.4-1.1,0.4-1.8c0.7-0.7,1.5-0.8,2.2,0c0.6,0.7-0.1,1.2-0.2,1.8c-0.3,1.3-1,2.2-2.3,2.6
		c-0.4,0.1-0.7,0.2-1-0.2C490.1,190.6,490.2,190.2,490.4,189.9z M488.2,184.7c0.1-0.2,0.3-0.4,0.4-0.6c0.2,0,0.4,0,0.5,0.1
		c0.8,0.5,0.7,1.2,0.2,1.8c-0.1,0.2-0.5,0.4-0.7,0.3C487.9,186.1,488.2,185.3,488.2,184.7z M451.6,211.8c-0.5-0.1-0.7-0.7-0.6-1.7
		c0.1-0.9,0.2-1.8,1.4-1.6c0.7,0.1,0.9,0.8,0.9,1.5C453.2,210.9,452.3,212,451.6,211.8z M453.5,216.8c-0.2-0.3-0.4-0.6-0.6-0.9
		c1.6-1.3,3.1-2.7,5.2-4.4C457.4,216,456.1,217.2,453.5,216.8z M454.1,223.8c1-4,4.4-5.2,7.6-6.6C458.6,223.3,457,224.7,454.1,223.8
		z M457.8,229.5c0.5-1.1,0.6-2.6,1.4-3.3c2.1-1.7,4.4-3,6.6-4.5c0.3,0.3,0.5,0.5,0.8,0.8c-1.5,2.2-2.8,4.7-4.7,6.5
		C461.1,229.9,459.2,229.4,457.8,229.5z M463.7,236.6c0.1-1.2-0.2-3,0.5-3.6c3.1-3.1,6.5-5.8,9.9-8.7c0.3,0.3,0.6,0.6,0.8,0.9
		c-1.6,4.2-3.7,8.1-7.2,11C466.8,236.9,465,236.5,463.7,236.6z M471.9,242.9c-0.7,0.3-1.9,0.1-2.5-0.3c-0.5-0.5-0.8-1.9-0.4-2.4
		c2.1-3.4,5.1-5.9,8.6-8.1C478,235.9,474.8,241.8,471.9,242.9z M476.6,248.8c0-1.4-0.5-3.2,0.2-4c2.4-2.8,5.2-5.3,7.8-7.9
		c0.3,0.2,0.6,0.5,0.9,0.7c-0.9,2.7-1.7,5.4-2.7,8c-0.4,1-1.1,2.3-2,2.7C479.6,248.8,478,248.6,476.6,248.8z M484.8,256.5
		c-1.1,0.2-2.6,0-3.4-0.6c-0.4-0.3-0.2-2.3,0.4-3.1c1.8-2.3,3.9-4.4,5.8-6.6c1.8-2.1,3.4-4.3,5.3-6.6c0,1,0.3,2.2-0.1,3.1
		c-1.9,4.1-3.9,8.1-6,12.1C486.5,255.5,485.6,256.3,484.8,256.5z M491,260.6c-0.5,0.5-1.8,0.5-2.5,0.1c-0.5-0.3-0.6-1.4-0.6-2.2
		c0-0.6,0.3-1.2,0.6-1.7c2.8-4.2,5.7-8.4,8.5-12.6c0.4,0.2,0.8,0.5,1.1,0.7c-1.3,3.8-2.4,7.6-3.9,11.2
		C493.6,257.8,492.3,259.3,491,260.6z M500.5,266.5c-1.3,0.4-3-0.4-4.5-0.6c0.6-1.2,1-2.8,1.9-3.5c3.4-2.4,7-4.4,10.5-6.6
		c0.2,0.2,0.5,0.5,0.7,0.7c-1.6,2.3-3,4.8-4.8,7C503.4,264.8,502,266.1,500.5,266.5z M507.2,269c0-1.4-0.5-3.1,0.2-4.1
		c2.4-3.5,5.3-6.8,7.8-10.2c1.5-2.1,2.7-4.3,4.1-6.5c0.3,0.1,0.6,0.3,1,0.4c-0.3,4.9-1.9,9.5-4.3,13.8c-1.2,2.3-2.9,4.4-4.8,6.1
		C510.3,269.3,508.5,268.9,507.2,269z M514.2,272c0.6-6,4.3-9.9,7.9-14C521.9,264.9,518.1,271.6,514.2,272z M522.9,276.3
		c-0.3,0.4-1.6,0.6-1.8,0.3c-0.5-0.6-1.1-1.8-0.8-2.4c1.8-3.3,3.8-6.5,5.8-9.8c0.4,0.2,0.9,0.5,1.3,0.7
		C527,269.4,525.3,273,522.9,276.3z M526.8,213.6c1.2-4.4,2.9-8.7,6.1-12.2c0.7-0.8,2.7-0.5,4.1-0.7c-0.2,1.2,0.1,2.7-0.6,3.5
		c-2.7,3.5-5.7,6.7-8.6,10.1C527.5,214.1,527.1,213.9,526.8,213.6z M533.4,217c0.2-3.7,3.7-10.2,6.4-11.9
		C541.3,208.4,537.6,215.2,533.4,217z M537,222.4c1.7-5.7,3.4-11.1,5-16.6c0.6-1.8,1.4-3.6,3.6-3.1c2.4,0.6,2.1,2.7,1.6,4.5
		C545.4,213.3,542.8,219,537,222.4z M542.7,220.6c3.3-5.2,4.8-11.7,10.3-15.5C551.5,211.5,547.8,216.5,542.7,220.6z M547.5,221.8
		c2.6-4.9,5-9.8,7.8-14.5c1.1-1.9,3.2-3.4,5.2-1.6c0.9,0.9,1.1,3.5,0.5,4.9C558.4,216.4,553.4,219.6,547.5,221.8z M558.7,219.5
		c2.3-5.1,3.7-10.3,8.5-13.4C569.8,209.3,564.6,217.5,558.7,219.5z M576.9,218.1c-2.2,1.9-5,3.2-7.6,4.6c-1.1,0.5-2.4,0.6-3.6,0.9
		c-0.1-0.2-0.2-0.4-0.3-0.6c2.6-2.9,5.1-5.8,7.8-8.5c0.8-0.8,2.5-0.7,3.7-1C577.1,215.1,577.7,217.4,576.9,218.1z"/>
	<path class="st2" d="M455.2,121.9c-3.7,1.2-6,3.8-7.8,7.1c-1.1,2-1,3.8,0.2,5.6c1.3,2,3,3.6,4.8,5.1c0.8,0.7,1.9,1.2,3.3,0.9
		c3.4-0.7,5.8-2.4,7.8-5.2c1.7-2.4,2.8-5.1,4.8-7.2c4.6-4.8,5.4-10.6,3.5-16.7c-1.1-3.7-2.1-7.5-3.6-11.2c-1.1-2.5-2.1-4.8-4.2-6.5
		c-0.1-0.3-0.3-0.5-0.7-0.5c-1.6-0.3-3.1-0.2-4.7,0.2c-4.4,1.2-6.6,5.2-5.5,9.7c0.8,3.3,2.5,6,4.4,8.7c0.7,1,1.6,1.9,1.5,3.2
		c-0.1,1.4-0.2,2.7-0.4,4.1C457.5,120.1,456.5,121.5,455.2,121.9z"/>
	<path class="st2" d="M435.4,534.8c1.4-0.1,2.8-0.1,4.2-0.2c0.1-0.6,0.2-1.2,0.3-1.8c-1.2-0.5-2.4-1.1-3.7-1.6
		C436,532.4,435.7,533.6,435.4,534.8z"/>
	<path class="st2" d="M486,143.1c-2.9,2.5-3,3.3-0.4,6.1c0.3,0.3,0.7,0.6,1,0.9c1.1,1.1,2.6,2,3.3,3.4c1.9,3.4,4.9,5.7,7.2,8.6
		c2.7,3.4,6.2,3.5,9.8,1.2c3.4-2.1,6.2-4.8,9-7.6c2.6-2.7,3.1-5.9,2.1-9.4c-0.9-3-2.8-5.3-5.1-7.3c-1.7-1.4-3.3-3.1-4.9-4.6
		c-2.1-1.9-3.5-4.5-5.8-6.1c-1.2-0.9-2-2-2.5-3.3c-1.7-4.3-4.4-7.8-7.9-10.7c-0.8-0.9-1.8-0.8-2.8-0.6c-1.2,0.5-2,1.4-3,2.2
		c-0.9,1.3-1,2.6-0.4,4c0.2,0.7,0.4,1.5,0.6,2.2c-0.2,0.6-0.3,1.3,0.1,1.9c0,0.2,0,0.3,0.1,0.5c0.1,1.3-0.6,2.7,0.2,4
		c1,1,1.5,2.3,2.3,3.5c1.4,2.1,1.9,4.4,0.6,6.9C488.6,140.9,487.4,142,486,143.1z"/>
	<path class="st2" d="M518.1,168c1.2,0.4,2.2,0.9,3.2,1.6c1.1,0.8,2.3,0.7,3.5,0.6c4.2,1.4,8.4,1.3,12.7,0.8
		c2.7-0.4,3.4-2.8,1.7-5.1c-1.6-2.1-3.1-4.3-5.5-5.5c-1.4-1-3-0.8-4.6-0.8c-1-0.4-2.1-0.4-3.1-0.2c-0.3-0.2-0.5-0.2-0.8-0.1
		c-0.5,0.1-1,0.3-1.5,0.4c-0.3-0.2-0.5-0.2-0.8,0c-2.3,0.4-3.8,2.2-5.5,3.6C515.3,165,515.7,167.2,518.1,168z"/>
	<path class="st2" d="M274.2,517.6c0.2-0.5,0.3-1.1,0.5-1.8c0.2-1,0.4-2.3,1-2.9c1.8-1.8,3.8-3.4,5.8-5.1c0.6,1.3,1.3,2.8,2.1,4.4
		c3-2.8,5.8-5.4,8.6-8c0.2,0.2,0.4,0.4,0.6,0.6c-1.1,3.1-2.3,6.2-3.4,9.4c0.3,0.2,0.6,0.4,0.9,0.6c1.5-0.6,3-1.3,4.6-1.6
		c0.8-0.2,2.4,0.2,2.6,0.8c1.3,2.8,3.5,2.4,5.3,1.4c2.2-1.3,3.8-0.7,5.3,0.8c1.1,1.2,1.9,2.8,3,4c0.5,0.5,2.1,0.9,2.3,0.6
		c1.3-1.7,2.4-4.1,0.4-5.7c-2.1-1.7-2.5-3.4-1.6-5.7c0.1-0.3-0.4-0.8-0.9-1.8c-0.8,1.5-1.2,2.5-1.8,3.4c-0.5,0.7-1.3,1.2-1.9,1.7
		c-0.3-0.9-1-1.9-0.8-2.7c0.3-1.5,1.2-2.9,1.7-4.4c0.2-0.8,0.5-1.9,0.1-2.4c-1.3-1.9,0-3,1.3-2.7c3.1,0.6,3.8-1.6,5-3.5
		c0.5-0.8,1.2-1.5,1.8-2.3c0.2,0.1,0.4,0.2,0.7,0.3c-0.2,1.5-0.4,2.9-0.6,4.7c2.5-2,4.8-3.8,7.5-6c0.1,1.5,0.2,2.2,0.2,2.9
		c1.2-0.1,2.2-0.2,2.4-0.2c1.3,2.1,2,4.5,3,4.6c3.4,0.4,5.5,2.8,7.9,4.7c2.2,1.8,4.1,1.9,5.7-0.8c0.8-1.3,1.7-2.4,3-0.5
		c1.8-1.5,3.6-2.8,5.9-4.7c0,1.8,0,2.6,0,3.1c2.9,0.5,5.5,1,8.5,1.6c-0.9,0.9-1.5,1.4-2.5,2.4c1.6,0.5,2.8,0.9,4.2,1.3
		c-1,0.9-1.9,1.7-3.2,2.8c1.9,0.1,3.4,0,4.7,0.3c1,0.2,1.9,1,2.8,1.6c0.8,0.5,1.8,1.8,2.1,1.6c1-0.6,2.4-1.6,2.6-2.6
		c0.5-2.6,0.6-5-1.6-7.4c-1-1.1-0.4-3.6-0.5-5.5c1.3,0.9,2.8,1.6,3.9,2.7c0.8,0.9,1.1,2.3,1.8,3.3c0.7,1,1.5,1.8,2,2.2
		c2.9-3.8,5.5-7.3,8.2-10.8c0.2,0.1,0.3,0.2,0.5,0.3c-0.2,1-0.4,2-0.7,3c0.2-0.1,0.5-0.2,0.7-0.2c1,1.8,2.1,3.6,3.2,5.6
		c2.4-2.1,4.7-4.2,7-6.2c0.2,0.2,0.4,0.3,0.7,0.5c-1.6,3.7-3.3,7.5-5.2,11.7c2.1-0.3,3.7-0.5,5.6-0.8c-0.6,1.7-1,2.9-1.4,4.1
		c3.5,1.4,5-1.8,7.4-3.4c0.2,1.4,0.3,2.2,0.4,2.8c4.1-1.8,8.1-3.5,12.1-5.2c0.2,0.3,0.3,0.6,0.5,0.9c-0.7,1.1-1.4,2.1-2.3,3.5
		c1.7,0,2.8,0,4.3,0c0,1.5,0,2.8,0,4.1c0.5,0.4,1,0.8,1.5,1.2c1-2.1,1.9-4.2,2.9-6.3c0.3,0.3,0.7,0.7,1,1c-0.4-0.8-0.8-1.6-1.2-2.3
		c0.3,0.1,0.7,0.2,1,0.3c1-1.9,2.2-3.7,3-5.7c1.2-3,2.1-6.1,5.7-7.5c0.2,1.2,0.3,2,0.5,2.8c1.7-0.7,3.1-1.4,4.6-1.7
		c0.8-0.2,1.8,0.2,2.7,0.5c1.1,0.4,2.2,1.2,3.3,1.4c1.4,0.2,2.9-0.2,4.9-0.3c-0.9,1.8-1.5,2.9-2.1,3.9c3.4,1.1,6.5,2.1,10.5,3.4
		c-2.3,1.1-3.7,1.8-5.6,2.7c1.6,0.5,2.7,0.7,3.6,1.3c0.8,0.5,1.9,1.4,1.9,2.1c0,0.8-0.8,1.9-1.6,2.4c-1,0.6-2.3,0.9-3.5,1.1
		c-2.2,0.4-2.9,1.7-1.4,3.2c1.9,2,4.2,3.9,6.6,5.2c2.5,1.3,5.9-1.4,6-4.3c-1.3,0.1-2.6,0.3-3.9,0.4c2.4-2.6,3.4-4.5,1.1-7.8
		c-2.3-3.4-0.4-7.3,3.3-9.4c0.8-0.4,1.5-1.5,1.8-2.4c1.1-3.1,3.3-3.7,6-2.7c2,0.7,3.8,1.7,5.6,2.8c0.9,0.5,1.6,1.5,2.2,2.2
		c-2.6,0.9-4.8,1.7-6.9,2.4c0.1,0.4,0.2,0.8,0.3,1.1c1.2,0,2.4-0.1,3.6,0c1.5,0.1,3.1,0.1,4.6,0.5c0.9,0.3,1.6,1.4,2.4,2.1
		c-0.9,0.5-1.8,1.2-2.8,1.4c-0.9,0.2-1.9,0.1-2.9,0.1c-0.1,0.4-0.1,0.7-0.2,1.1c2,0.5,4.1,0.8,6,1.4c1,0.3,2.5,1.1,2.7,1.9
		c0.2,0.9-0.7,2.2-1.4,3.1c-0.4,0.6-1.4,0.8-2.1,1.1c0,0.4-0.1,0.8,0,1c1.3,1.6,2.6,4.3,4.1,4.4c2.2,0.2,1.9-2.6,2.3-4.4
		c0.3-1.7,1.3-3.2,2-4.8c0.4,0,0.7,0,1.1,0.1c-0.5,3,1.3,3.3,3,3.2c0.3,1.9,0.6,3.4,0.9,5c0.4,0,0.8,0.1,1.1,0.1
		c0.5-4.6,2.2-8.3,6.3-10.5c0.2,1.3,0.4,2.2,0.6,3.1c0.8-0.3,1.7-0.5,2.5-0.8c2.6-1.3,5-0.9,7.6,0.1c0,0,26-15.2,42-28.6H231.8
		C244.9,499.8,259.1,509.5,274.2,517.6z"/>
	<path class="st2" d="M471.2,522c0-0.5,0-1,0-1.6c-1.4,0-2.7,0-4.1,0c0.1,0.5,0.1,1.6,0.2,1.6C468.6,522.1,469.9,522,471.2,522z"/>
	<path id="K_00000141454336713901306370000000676509051778134717_" class="st2" d="M693,450.1c-1.1,0-2-0.9-2-2l-0.6-93
		c0-0.5,0.2-1,0.6-1.4c0.4-0.4,0.9-0.6,1.4-0.6c1.1,0,2,0.9,2,2l0.4,58.8l0.5-0.6c2.8-3.3,7-8.9,11.7-16.4
		c12.5-20.3,18.2-37.2,18.2-37.3c0.3-0.8,1-1.4,1.9-1.4c0.2,0,0.4,0,0.6,0.1c0.5,0.2,0.9,0.5,1.2,1c0.2,0.5,0.3,1,0.1,1.5
		c-0.2,0.7-5.5,16.5-17.4,36.2l-0.1,0.1l24,49.1c0.2,0.5,0.3,1,0.1,1.5s-0.5,0.9-1,1.1c-0.3,0.1-0.6,0.2-0.9,0.2
		c-0.8,0-1.4-0.4-1.8-1.1L709,401.1l-0.3,0.4c-7,10.9-12.8,17.1-13.8,18.2l-0.1,0.1l0.2,28.3c0,0.5-0.2,1-0.6,1.4
		C694.1,449.9,693.6,450.1,693,450.1L693,450.1L693,450.1z"/>
	<path id="R_00000045597104027399979690000017602639098170941314_" class="st2" d="M629.8,452.4c-1.1,0-2-0.9-2-2v-95.9v-0.1
		c0-1.1,0.8-2,1.8-2.1c1.1-0.1,2.3-0.1,3.4-0.1c18.6,0,34.3,12.6,36.6,29.3c1.6,11.9-4,24.1-14.7,31.7l-0.2,0.1l12.6,34.9
		c0.2,0.5,0.2,1-0.1,1.5c-0.2,0.5-0.6,0.8-1.1,1c-0.2,0.1-0.4,0.1-0.7,0.1c-0.8,0-1.6-0.5-1.9-1.3l-12.3-34.1l-0.3,0.2
		c-4.5,2.5-9.4,4.1-14.6,4.8c-1.4,0.2-2.9,0.3-4.4,0.4h-0.3v29.6C631.8,451.5,630.9,452.4,629.8,452.4z M631.8,416.8h0.3
		c1.3,0,2.6-0.2,3.8-0.3c9.1-1.2,17.2-5.5,22.8-12.1c5.6-6.5,8.1-14.5,7-22.4c-2-14.7-16-25.9-32.6-25.9c-0.3,0-0.7,0-1,0h-0.3
		V416.8z"/>
	<path id="A_00000129206630794016388940000017058451745673222073_" class="st2" d="M609.2,455.3c-1,0-1.8-0.7-1.9-1.6l-5.4-28.9
		h-37.4l-5.7,26.5c-0.2,0.9-1,1.6-1.9,1.6c-0.1,0-0.3,0-0.4,0c-0.5-0.1-1-0.4-1.2-0.9c-0.3-0.4-0.4-1-0.3-1.5l20.6-94.8h17.6
		l12.3,66.3l0,0c0.1,0.3,0.2,0.6,0.2,0.9v0.1v0.1l5.6,30c0.1,0.5,0,1-0.3,1.5c-0.3,0.4-0.8,0.7-1.3,0.8
		C609.4,455.3,609.3,455.3,609.2,455.3z M601.2,420.8l-11.4-61.3h-11.1l-13.3,61.3H601.2z"/>
	<path id="P_00000053543246228309398080000010387291948550485651_" class="st2" d="M498.1,464.2c-1.1,0-2-0.9-2-2V341.1
		c0-1.1,0.9-2,2-2c0.2,0,0.3,0,0.5,0.1l0,0l0,0c0.7,0,1.3,0,2,0c0.8,0,1.7,0,2.4,0.1c11.5,0.8,22,6.4,29.6,15.8s11.3,21.5,10.5,34
		c-0.8,12.3-5.9,23.7-14.5,32c-7.8,7.6-17.9,12-28.4,12.2h-0.3v29.1C500.1,463.3,499.2,464.2,498.1,464.2z M500.1,429.2h0.3
		c20.3-0.5,37.4-18.2,38.8-40.4c1.6-23.7-14.7-44.1-36.4-45.5c-0.8,0-1.5-0.1-2.4-0.1H500L500.1,429.2L500.1,429.2z"/>
	<path id="C_00000181775722114775781380000009864301022100817311_" class="st2" d="M444.3,451.3c-0.4,0-0.8-0.1-1.2-0.4
		c-14.7-10.8-23.4-28.3-23.4-47c0-18.3,8.1-35.1,22.1-46.1c0.4-0.3,0.8-0.4,1.2-0.4c0.6,0,1.2,0.3,1.6,0.8c0.3,0.4,0.5,0.9,0.4,1.5
		c-0.1,0.5-0.3,1-0.7,1.3c-13.1,10.2-20.6,25.9-20.6,42.9c0,17.4,8.1,33.8,21.8,43.8c0.4,0.3,0.7,0.8,0.8,1.3c0.1,0.5,0,1-0.4,1.5
		C445.6,451,445,451.3,444.3,451.3z"/>
	<path id="I_00000150787582543173827140000010174863263626013863_" class="st2" d="M395.6,453.1c-1.1,0-2-0.9-2-2v-92.9
		c0-1.1,0.9-2,2-2s2,0.9,2,2v92.9C397.6,452.2,396.7,453.1,395.6,453.1z"/>
	<path id="S_00000143591733823578727480000015341698524405670840_" class="st2" d="M353.6,448.9c-0.5,0-1-0.2-1.4-0.6
		s-0.6-0.9-0.6-1.4s0.2-1,0.6-1.4c0.1-0.1,11.2-11.2,12.8-23.6c0.9-6.7-2.6-12.7-6.2-19.1c-3.6-6.3-7.4-12.9-7.6-21
		c-0.4-12.2,11.1-24.6,11.6-25.1c0.4-0.4,0.9-0.6,1.4-0.6s1,0.2,1.4,0.5c0.8,0.7,0.8,2,0.1,2.8c-0.1,0.1-10.9,11.7-10.5,22.3
		c0.2,7.1,3.7,13.2,7.1,19.1c3.8,6.7,7.7,13.5,6.7,21.5c-1.8,13.9-13.5,25.4-14,25.9C354.6,448.7,354.2,448.9,353.6,448.9z"/>
	<path id="S_00000099656896015923158390000004575130836841291451_" class="st2" d="M313.7,449.1c-0.5,0-1-0.2-1.4-0.6
		s-0.6-0.9-0.6-1.4s0.2-1,0.6-1.4c0.1-0.1,10.9-11.5,12.1-24c0.7-6.7-2.9-12.6-6.7-18.9c-3.8-6.2-7.7-12.7-8.2-20.7
		c-0.7-12.2,10.4-24.9,10.9-25.4c0.4-0.4,0.9-0.7,1.5-0.7c0.5,0,1,0.2,1.3,0.5c0.4,0.4,0.6,0.8,0.7,1.4c0,0.5-0.1,1-0.5,1.4
		c-0.4,0.5-10.5,12.1-9.9,22.6c0.4,7.1,4.1,13.1,7.7,18.9c4,6.5,8.1,13.3,7.3,21.3c-1.4,13.9-12.7,25.8-13.2,26.3
		C314.7,448.9,314.2,449.1,313.7,449.1z"/>
	<path id="A_00000016046516644393570050000017789247761770506415_" class="st2" d="M292.8,455c-1,0-1.8-0.7-1.9-1.6l-5.3-28.9H248
		l-5.7,26.5c-0.2,0.9-1,1.6-1.9,1.6c-0.1,0-0.3,0-0.4,0c-1.1-0.2-1.8-1.3-1.5-2.4l20.7-95.6h17.6l12.3,67.5c0,0.1,0,0.2,0,0.2
		l5.6,30.4c0.1,0.5,0,1-0.3,1.5c-0.3,0.4-0.8,0.7-1.3,0.8C293,455,292.9,455,292.8,455z M284.8,420.5l-11.3-62.1h-11.1L249,420.5
		H284.8z"/>
	<path id="R_00000149373361735375160690000017714391686998478511_" class="st2" d="M186.6,452.9c-1.1,0-2-0.9-2-2v-96.2v-0.1
		c0-0.1,0-0.1,0-0.2s0-0.1,0-0.2s0-0.1,0.1-0.2c0,0,0-0.1,0.1-0.1c0-0.1,0.1-0.1,0.1-0.2s0.1-0.1,0.1-0.2s0.1-0.1,0.1-0.1l0.1-0.1
		l0.1-0.1c0,0,0.1-0.1,0.2-0.1c0.1,0,0.1-0.1,0.2-0.1c0.1,0,0.1,0,0.2-0.1c0.1,0,0.1,0,0.2-0.1c0.1,0,0.1,0,0.2,0h0.1l0,0
		c1.1-0.1,2.3-0.1,3.4-0.1c18.6,0,34.3,12.6,36.6,29.3c1.2,9.1-1.6,18.1-7.9,25.5c-2,2.3-4.3,4.4-6.8,6.2l-0.2,0.1l12.6,34.9
		c0.2,0.5,0.2,1-0.1,1.5c-0.2,0.5-0.6,0.8-1.1,1c-0.2,0.1-0.4,0.1-0.7,0.1c-0.8,0-1.6-0.5-1.9-1.3l-12.2-34l-0.3,0.2
		c-4.5,2.5-9.4,4.1-14.6,4.8c-1.4,0.2-2.9,0.3-4.4,0.4h-0.3V451C188.6,452,187.7,452.9,186.6,452.9z M188.6,417.3h0.3
		c1.3,0,2.6-0.2,3.8-0.3c9.1-1.2,17.2-5.5,22.9-12.1c5.6-6.5,8.1-14.5,7-22.4c-2-14.7-16-25.9-32.6-25.9c-0.3,0-0.7,0-1,0h-0.3
		L188.6,417.3L188.6,417.3z"/>
	<path id="U_00000033343581058528171610000007358242302994299296_" class="st2" d="M159.4,450.6c-1.1,0-2-0.9-2-2l-0.1-11.8
		l-0.4,0.3c-16.2,12.7-17.9,12.7-18.5,12.7c-3.3,0-6.6-1-9.8-3c-3.9-2.3-11.4-7.9-11.7-8.2l-0.8-0.6l-0.8-83.5c0-0.5,0.2-1,0.6-1.4
		s0.9-0.6,1.4-0.6c1.1,0,2,0.9,2,2l0.8,81.5l0.1,0.1c2.2,1.6,7.5,5.5,10.5,7.3c2.6,1.5,5.1,2.3,7.5,2.4h0.1h0.1
		c1.8-0.8,10-6.8,19-14l0.1-0.1l-0.9-76.8c0-1.1,0.9-2,2-2s2,0.9,2,2l1.2,93.7C161.4,449.7,160.5,450.6,159.4,450.6L159.4,450.6
		L159.4,450.6z"/>
	<path id="J_00000031188881298228718920000016695782307544431232_" class="st2" d="M55.7,459.8c-1.1,0-1.9-0.8-2-1.9
		c0-1.1,0.8-2,1.9-2.1l12-0.5c6.5-0.9,11.3-6.6,11.1-13.1l-1.2-97.6c0-1.1,0.9-2,2-2s2,0.9,2,2l1.2,97.5c0.2,8.6-6.1,16-14.7,17.2
		h-0.2L55.7,459.8L55.7,459.8z"/>
</g>
</svg>
