<?xml version="1.0" encoding="utf-8"?>
<!-- Generator: Adobe Illustrator 27.3.1, SVG Export Plug-In . SVG Version: 6.00 Build 0)  -->
<svg version="1.1" id="Logo_x5F_JP_x5F_BW" xmlns="http://www.w3.org/2000/svg" xmlns:xlink="http://www.w3.org/1999/xlink" x="0px"
	 y="0px" viewBox="0 0 787 592.6" style="enable-background:new 0 0 787 592.6;" xml:space="preserve">
<g>
	<path d="M686.5,297.4c0-0.4,0-0.8,0-1.1c0-39.5-7.7-77.9-23-114c-14.8-34.9-35.9-66.2-62.8-93.1c-26.9-26.9-58.2-48-93.1-62.8
		c-36.1-15.3-74.5-23-114-23s-77.9,7.7-114,23c-34.9,14.8-66.2,35.9-93.1,62.8c-26.9,26.9-48,58.2-62.8,93.1
		c-15.3,36.1-23,74.5-23,114c0,0.4,0,0.8,0,1.1h-99v215.2h194.4c54.1,49.5,123.9,76.6,197.6,76.6s143.4-27.1,197.6-76.6h194.4V297.4
		H686.5z M779.3,506.5H591h-2.4l-1.7,1.6c-26.4,24.1-56.5,42.9-89.6,55.7c-33.1,12.8-68,19.3-103.9,19.3s-70.8-6.5-103.9-19.3
		c-33-12.8-63.2-31.6-89.6-55.7l-1.7-1.6h-2.4H7.6v-203h92.9h6.1l0-6.1c0-0.4,0-0.7,0-1.1c0-38.7,7.6-76.3,22.5-111.7
		c14.5-34.2,35.1-64.8,61.5-91.2c26.3-26.3,57-47,91.2-61.5c35.4-15,72.9-22.5,111.7-22.5S469.8,17,505.1,32
		c34.2,14.4,64.8,35.1,91.2,61.5c26.3,26.3,47,57,61.5,91.2c15,35.4,22.5,72.9,22.5,111.7c0,0.4,0,0.7,0,1.1l0,6.1h6.1h92.9V506.5z"
		/>
	<path d="M462.8,215.9c-3.2,1.5-6.7,2.7-7.7,6.7C458,223.6,459.7,222.2,462.8,215.9z"/>
	<path d="M453.3,207.1c-1.1-0.1-1.3,0.8-1.4,1.7c-0.1,1,0.1,1.6,0.6,1.7c0.7,0.2,1.6-0.9,1.7-1.9
		C454.3,207.9,454.1,207.2,453.3,207.1z"/>
	<path d="M466.9,220.6c-2.3,1.5-4.6,2.8-6.7,4.6c-0.8,0.7-1,2.2-1.4,3.3c1.4-0.1,3.4,0.4,4.2-0.4c1.9-1.9,3.2-4.4,4.8-6.6
		C467.5,221.2,467.2,220.9,466.9,220.6z"/>
	<path d="M459.1,210.1c-2.1,1.8-3.7,3.2-5.3,4.5c0.2,0.3,0.4,0.6,0.6,0.9C457.1,216,458.4,214.8,459.1,210.1z"/>
	<path d="M476.1,224c-0.3-0.3-0.6-0.6-0.9-0.9c-3.4,2.9-6.8,5.7-10,8.8c-0.7,0.7-0.3,2.4-0.5,3.7c1.4-0.1,3.2,0.3,4.1-0.5
		C472.3,232.3,474.5,228.3,476.1,224z"/>
	<path d="M490.2,184.7c0.2,0.1,0.6-0.1,0.7-0.3c0.5-0.7,0.6-1.3-0.2-1.9c-0.1-0.1-0.3-0.1-0.5-0.1c-0.1,0.2-0.3,0.4-0.4,0.6
		C489.7,183.6,489.4,184.3,490.2,184.7z"/>
	<path d="M484.2,244.8c1-2.7,1.9-5.4,2.8-8.1c-0.3-0.3-0.6-0.5-0.9-0.8c-2.7,2.7-5.5,5.2-8,8.1c-0.7,0.8-0.2,2.7-0.2,4
		c1.4-0.1,3,0.1,4.3-0.5C483.1,247.1,483.8,245.8,484.2,244.8z"/>
	<path d="M479,231.1c-3.6,2.2-6.6,4.8-8.8,8.2c-0.3,0.5-0.1,2,0.4,2.4c0.5,0.5,1.8,0.6,2.5,0.3C476.1,241,479.4,235,479,231.1z"/>
	<path d="M509.4,210.8c0.3,0.2,0.5,0.3,0.8,0.5c4.7-3.4,8.7-7.6,11.9-12.5c0.5-0.7,0.3-2.5-0.3-3.1c-0.6-0.7-2.2-1.1-3.1-0.7
		c-1.2,0.5-2.4,1.5-3,2.6c-2.1,3.7-4,7.5-5.9,11.3C509.5,209.4,509.5,210.2,509.4,210.8z"/>
	<path d="M518.3,215.1c3.9-4.3,7.9-8.4,11.6-12.9c0.8-0.9,1.1-3.5,0.5-4.1c-1.5-1.4-3.5-0.8-4.6,1c-3,5-5.8,10-8.7,15
		C517.4,214.5,517.9,214.8,518.3,215.1z"/>
	<path d="M493,189.4c1.3-0.4,2-1.4,2.3-2.6c0.2-0.6,0.8-1.2,0.2-1.8c-0.7-0.8-1.5-0.7-2.2,0c0,0.6,0,1.3-0.4,1.8
		c-0.3,0.5-0.6,1-0.9,1.4c-0.2,0.3-0.3,0.7,0,1C492.2,189.6,492.6,189.5,493,189.4z"/>
	<path d="M494.4,238.6c-1.9,2.4-3.6,4.6-5.4,6.7c-1.9,2.3-4.1,4.4-5.9,6.7c-0.6,0.8-0.8,2.8-0.4,3.1c0.9,0.7,2.3,0.8,3.5,0.6
		c0.8-0.1,1.7-1,2.1-1.8c2.1-4.1,4.2-8.2,6.1-12.3C494.8,240.9,494.4,239.6,494.4,238.6z"/>
	<path d="M570.5,215.8c2.2-2.2,4.4-4.3,6.4-6.5c0.3-0.3,0.1-1.5-0.2-1.6c-0.6-0.2-1.7-0.3-2,0c-1.9,2.2-3.7,4.6-5.5,7
		C569.7,215.1,570.1,215.4,570.5,215.8z"/>
	<path d="M513.4,194.8c0-0.9-0.3-2-0.8-2.7c-1-1.6-2.5-2-3.3,0.1c-2.5,6.1-4.8,12.2-7.3,18.6C506.3,209.1,513.5,199,513.4,194.8z"/>
	<path d="M494.9,193.6c-0.3,0.4-0.5,0.8-0.1,1.2c0,0,0,0,0,0c0,0,0,0,0,0c0,0,0,0,0,0c0.3,0.3,0.6,0.3,0.9,0.3c0.1,0,0.1,0,0.2,0.1
		c0,0,0.1-0.1,0.1-0.1c0.1-0.1,0.2-0.1,0.4-0.2c2.1-1.6,3.2-3.9,4.4-5.6c0.2-1.1,0.1-1.9-0.3-2.2c0,0,0-0.1,0-0.1c0,0-0.1,0-0.1,0
		c-0.4-0.2-0.9-0.2-1.6,0c-0.3,0.1-0.6,0.3-0.8,0.5c-0.2,0.1-0.4,0.2-0.5,0.4c-0.8,1.5-1.4,3.1-1.9,4.7
		C495.4,192.9,495.2,193.2,494.9,193.6z"/>
	<path d="M504.6,188.8c-4.3,3.4-4.3,8.6-6.7,12.6C503.5,198.3,506.7,192.4,504.6,188.8z"/>
	<path d="M508.7,237c-3.4,5.7-6.9,11.3-10.1,17.1c-0.5,0.9-0.3,2.3-0.4,3.5c1.4,0,3,0.4,4.1-0.2c1.3-0.7,2.4-2.2,3-3.6
		c1.9-5,3.6-10,5.2-15.1c0.3-1,0.3-2.2,0.4-3.2c-0.3-0.1-0.5-0.2-0.8-0.3C509.6,235.8,509.1,236.3,508.7,237z"/>
	<path d="M563,204.3c-2-1.8-4.2-0.3-5.2,1.6c-2.8,4.8-5.3,9.8-7.9,14.7c6-2.3,11.1-5.4,13.6-11.4C564.1,207.8,564,205.1,563,204.3z"
		/>
	<path d="M545.1,219.5c5.1-4.2,8.9-9.2,10.4-15.7C549.9,207.6,548.4,214.1,545.1,219.5z"/>
	<path d="M569.9,204.7c-4.9,3.1-6.3,8.4-8.7,13.6C567.2,216.3,572.5,207.9,569.9,204.7z"/>
	<path d="M576.1,213.3c-2.8,2.7-5.3,5.7-8,8.6c0.1,0.2,0.2,0.4,0.3,0.6c1.2-0.3,2.5-0.3,3.6-0.9c2.7-1.4,5.5-2.7,7.7-4.7
		c0.8-0.7,0.1-3,0.1-4.6C578.6,212.6,577,212.5,576.1,213.3z"/>
	<path d="M498.6,243.3c-2.9,4.3-5.8,8.5-8.6,12.8c-0.3,0.5-0.7,1.2-0.6,1.8c0,0.8,0.1,2,0.6,2.3c0.7,0.4,2.1,0.4,2.5-0.1
		c1.3-1.3,2.7-2.8,3.4-4.5c1.5-3.7,2.6-7.6,3.9-11.4C499.4,243.8,499,243.6,498.6,243.3z"/>
	<path d="M548,201.2c-2.3-0.6-3.1,1.3-3.7,3.1c-1.7,5.6-3.4,11.1-5.1,16.9c5.8-3.5,8.5-9.2,10.4-15.5
		C550.2,204,550.4,201.8,548,201.2z"/>
	<path d="M522.1,247.8c-0.3-0.1-0.7-0.3-1-0.4c-1.4,2.2-2.6,4.5-4.1,6.6c-2.6,3.5-5.5,6.8-7.9,10.4c-0.6,1-0.1,2.7-0.2,4.1
		c1.4-0.1,3.2,0.3,4-0.5c1.9-1.8,3.6-3.9,4.8-6.2C520.2,257.5,521.8,252.9,522.1,247.8z"/>
	<path d="M516.1,271.6c3.9-0.4,7.7-7.2,8-14.2C520.5,261.5,516.7,265.5,516.1,271.6z"/>
	<path d="M542.1,203.6c-2.7,1.7-6.3,8.3-6.5,12.1C539.8,213.9,543.6,207,542.1,203.6z"/>
	<path d="M510.3,255.2c-3.6,2.2-7.3,4.3-10.7,6.7c-1,0.7-1.3,2.4-2,3.6c1.5,0.2,3.2,1,4.5,0.6c1.5-0.4,2.9-1.7,4-3
		c1.8-2.2,3.3-4.7,4.9-7.1C510.8,255.7,510.5,255.5,510.3,255.2z"/>
	<path d="M522.2,274c-0.3,0.5,0.3,1.7,0.9,2.4c0.2,0.3,1.6,0.1,1.8-0.3c2.5-3.4,4.2-7.1,4.5-11.2c-0.5-0.3-0.9-0.5-1.4-0.8
		C526.1,267.3,524.1,270.6,522.2,274z"/>
	<path d="M539.2,199.3c-1.4,0.2-3.4-0.1-4.1,0.7c-3.2,3.5-4.9,7.8-6.2,12.3c0.3,0.3,0.7,0.5,1,0.8c2.9-3.4,6-6.7,8.7-10.2
		C539.2,202.1,539,200.5,539.2,199.3z"/>
	<path d="M153.4,434c-9.1,7.2-17.4,13.3-19.3,14.2l-0.1,0l-0.1,0c-2.5-0.1-5-0.9-7.6-2.4c-3-1.8-8.4-5.8-10.6-7.4l-0.1-0.1
		l-0.8-82.8c0-1.1-0.9-2-2-2c-0.5,0-1,0.2-1.4,0.6c-0.4,0.4-0.6,0.9-0.6,1.4l0.8,84.8l0.8,0.6c0.3,0.2,7.9,5.9,11.9,8.3
		c3.3,2,6.7,3,10,3c0.7,0,2.4,0,18.8-12.9l0.4-0.3l0.1,12c0,1.1,0.9,2,2,2h0h0c1.1,0,2-0.9,2-2l-1.2-95.1c0-1.1-0.9-2-2-2
		c-1.1,0-2,0.9-2,2l1,78L153.4,434z"/>
	<path d="M74.6,343.3c-1.1,0-2,0.9-2,2l1.2,99.1c0.2,6.7-4.7,12.4-11.3,13.4l-12.1,0.5c-1.1,0-2,1-1.9,2.1c0,1.1,0.9,1.9,2,1.9h0
		l12.3-0.5l0.2,0c8.7-1.2,15.1-8.7,14.9-17.4l-1.2-99.1C76.7,344.2,75.7,343.3,74.6,343.3z"/>
	<path d="M665.6,296.3c0-150.3-121.8-272.1-272.1-272.1S121.4,146,121.4,296.3c0,7.4,0.3,14.8,0.9,22H22.4v173.4h181.8
		c49,47.4,115.7,76.6,189.3,76.6s140.3-29.2,189.3-76.6h181.8V318.3h-99.9C665.3,311,665.6,303.7,665.6,296.3z M158.2,196.9
		c12.9-30.4,31.3-57.7,54.7-81.2c23.5-23.5,50.8-41.9,81.2-54.7C325.6,47.7,359,41,393.5,41s67.9,6.7,99.4,20.1
		c30.4,12.9,57.7,31.3,81.2,54.7c23.5,23.5,41.9,50.8,54.7,81.2c13.3,31.5,20.1,64.9,20.1,99.4c0,7.4-0.3,14.7-0.9,22H348.6
		c0.1-0.1,0.2-0.3,0.3-0.4c2.5-2.8,5.4-4.8,9-5.9c4.6-1.5,9.2-3.1,13.8-4.6c1.1-0.3,1.6-0.9,1.7-2c0.2-1.6,0.6-3.2,0.9-5
		c0.6,0.4,1.1,0.7,1.5,1.1c2.2,2.4,5.1,2.9,8,2.4c1.2-0.2,2.6-1.4,3.3-2.5c1-1.3,2-2,3.6-2.4c4-1.1,7.9,0,11.8-0.1
		c3.5-0.1,5.5,1.3,7,4.4c1.3,2.7,3.1,5.2,4.8,7.9c1.8-4.1,1.2-8.2,0.5-12.3c-0.1-0.5-0.7-1-1.1-1.3c-2.2-1.4-3.6-3.3-4.8-5.7
		c-1.6-3.2-4.4-4.6-7.8-3.9c-1.5,0.3-3,0.9-4.5,1.5c-1.8,0.7-3.6,1.5-5.5,2.1c-1.2,0.4-2.6,0.3-3.9,0.4c-0.2-3.3,1.4-5.9,4.5-7.2
		c4.4-1.9,8.8-1.8,13.3-0.1c3,1.2,6,2.2,9.4,3.4c-0.3-0.9-0.4-1.5-0.6-2c-1.2-2.7-3-4.7-5.5-6.1c-7.8-4.5-16.3-6.6-25.3-5.8
		c-5.5,0.4-7.2,3-6.1,8.6c0,0.2,0,0.3,0,0.6c-0.6,0.2-1.2,0.5-1.8,0.7c-1.8,0.6-3.2,1.3-3.6,3.6c-0.3,1.9-2,2.8-3.8,3.2
		c-2.1,0.4-4.2,0.7-6.2,1.2c-0.4,0.1-1,0.5-1.2,0.9c-0.4,1.4-1.4,2.1-2.7,2.3c-1.8,0.3-2.9,1.3-3.3,3.1c-0.6,3.7-2.9,5.2-6.4,5.1
		c-0.4,0-0.9,0.1-1.3,0.1c-3.4,0.2-3.7,0.4-5.8,3.1c-1.7-0.8-3.4-1.5-5.1-2.4c-1-0.5-1.6-0.4-2.4,0.4c-0.6,0.7-1,1.9-2.3,1.4
		c-1.3-0.5-2-1.5-2.1-2.9c-0.3-2.7,0-5.3,1.2-7.7c1.3-2.7,2.7-3,6-1.2c1.6-2.5,2.7-3,5.7-2.5c0.7,0.1,1.5,0.3,2.2,0.4
		c2.6,0.4,4.9,0.9,7.5-0.7c2.9-1.8,6.6-2.4,9.9-3.7c1.2-0.5,2.4-1.3,3.3-2.3c2.6-2.7,4.1-6.2,5.5-9.6c-1.5-0.9-3.5-1.3-3.3-3.5
		c0.2-2.1,1.6-3.1,4.8-3.5c-0.1-1.7-0.3-3.4-0.4-5.3c3.7,1.3,6-1.1,8.1-3.3c2.3-2.4,4.7-3.4,7.9-2.9c3.2,0.5,6.4,0.7,9.7,1.1
		c1.2-2.7,0.1-5.6-2.8-7c-2.8-1.3-5.8-1.5-8.8-1.2c-3.9,0.4-7.8,1.1-11.7,1.8c-0.6,0.1-1.1,0.7-1.6,1.2c-1.5,1.6-3.1,3.2-4.6,4.8
		c-0.2-0.1-0.3-0.1-0.5-0.2c-0.6-2.9-1.3-5.8-2-9c2.7,1.5,4.8,0.7,6.6-1c2.6-2.6,5.4-3.3,8.9-2.4c3.1,0.8,5.6,0.3,8.7-0.8
		c-1.5-4.7-6.8-8-12.3-7.4c-2.1,0.2-4.3,0.8-6.3,1.5c-4.8,1.7-9.2,4.3-13.1,7.5c-1.2,1-2.4,2.1-3.4,3.3c-2.8,3.5-2.3,6.2,1.4,8.6
		c3.2,2.1,3.4,2.2,1.5,5.5c-1.6,2.7-1.5,4.7,0.9,6.6c0.2,0.2,0.4,0.5,0.8,1c-3.3,1.7-5.7,4.7-9.6,5c-0.2,0-0.4,0.1-0.6,0.1
		c-4.2,0.1-7.4,1.8-9.1,5.9c-0.8,1.9-2.7,1.4-4.2,1.9c-0.6,0.2-1.4,0.1-1.6,0.5c-0.8,1.2-1.9,1.1-3,0.9c-0.6-0.1-1.3-0.1-2-0.1
		c-2.9,0.1-5.6-0.3-7.4-3.2c-0.7-1.2-2.3-2-3.5-2.9c-1.3-0.9-2.7-0.5-3.7,0.6c-1,1.2-1.9,2.6-2.7,4.1c-0.9,1.8-1.7,3.6-2.6,5.5
		c-3.4-3.2-6.2-5.7-8.9-8.4c-0.7-0.8-1.2-2.1-1.2-3.2c-0.1-4.7,0-9.4,0-14.2c0-2.7,1.3-2.8,3.3-1.9c1.1,0.5,2.2,1.1,3.4,1.6
		c0.3-0.2,0.5-0.4,0.8-0.6c-0.9-1.7-1.6-3.5-2.7-4.9c-2.9-3.7-3.5-7.6-2.2-12.1c1-3.4,2.6-5.7,6.2-6.5c3-0.6,4.8-2.6,4.9-5.9
		c0-2.2,0.2-4.3,0.5-6.4c0.1-1,0.5-2,0.7-2.9c0.3-0.1,0.6-0.1,0.9-0.2c0.6,1.4,1.3,2.7,1.6,4.1c1.6,7.9,1.6,15.8,0.4,23.8
		c-0.3,1.7-0.5,3.5-0.8,5.7c8.7-11.5,11.7-24.3,12.6-38c5.2,2.1,8.3,9.8,6.3,14.8c-1.8,4.7-4.2,9.1-6.2,13.8
		c-1.2,2.7-2.1,5.5-3.2,8.3c0.3,0.2,0.5,0.4,0.8,0.6c0.7-0.8,1.5-1.4,2-2.3c3.6-5.3,7.4-10.5,10.8-15.9c1.2-1.9,1.6-4.4,2.5-6.5
		c1.6-3.9,3.3-7.8,5.7-11.5c-1,5.5-2.1,11-3.1,16.6c0.4,0.2,0.8,0.3,1.3,0.5c0.7-1.2,1.5-2.3,2-3.6c3.2-7.8,6.2-15.7,9.4-23.6
		c0.5-1.3,1.5-2.5,2.2-3.7c0.4,0,0.8,0.1,1.2,0.1c0.6,5.9,1.2,11.7,1.7,17.6c0.2,0,0.4,0,0.6,0c1.6-9.7,3.1-19.5,4.7-29.2
		c0.3,0,0.6,0,0.9,0.1c0,2.4,0,4.9,0,7.3c0.2,0.1,0.5,0.1,0.7,0.2c0.6-1.1,1.3-2.1,2.3-3.8c0.4,5.6,0.8,10.6,1.2,15.6
		c0.5,0.1,1,0.1,1.4,0.2c1.3-5.3,2.7-10.5,4-15.8c0.4-0.1,0.7-0.2,1.1-0.2c1.6,3.7,3.7,7.2,4.5,11c0.8,4,2.9,7.1,5.1,10.2
		c5.1,6.8,12.2,11,19.3,15.1c9,5.2,18.2,10.2,27.5,14.9c9.9,5.1,17.8,12.8,25.8,20.3c3.7,3.4,7.5,6.7,11.2,10
		c9.1,8,19.9,9.6,31.3,8.5c4.2-0.4,8.5-0.9,12.5-1.9c1.9-0.5,4.6-2.3,4.8-3.8c0.2-1.8-1.6-4.2-3.1-5.7c-1.5-1.5-3.7-2.6-5.8-3.2
		c-13.2-4.1-24.2-11.7-34-21.4c-8.5-8.3-17.3-16.4-23.5-26.7c-0.5-0.8-1-1.7-1.3-2.7l0.1,0c-1.3-3.2-2.4-6.5-3.2-9.8
		c-0.6-1-0.3-2,0-3c-0.3-0.5-0.5-1.1-0.9-1.4c-1.3-1.3-2.1-2.8-2.6-4.5c-0.2-0.7-0.3-1.3-0.4-2c-0.3-3,1.5-4.1,4.1-2.7
		c1.3,0.7,2.2,2.1,3.5,2.7c0.4,0.2,0.9,0.4,1.5,0.5c0.3,0.1,0.7,0.3,1,0.4c1.4,0.6,2.7-0.3,3-1.8c0.2-0.9,0-1.6-0.4-2.5
		c-1.1-2.7-2.5-5.3-3.1-8.3c-0.3-1.8-0.6-3.8-2-5.3c-1.3-1.5-2.8-2.8-4.2-4.3c-2.7-2.8-5.6-5.4-9.2-6.8c-0.1,0-0.1-0.1-0.2-0.2
		c-0.9,0-1.7,0-2.6-0.1c-1.2-0.6-2.4-1.1-3.6-1.6c-0.1-0.1-0.3-0.2-0.3-0.4c0.1-0.3,0.1-0.5,0.2-0.8c0.8-0.1,1.5-0.2,2.3-0.4
		c0.3-0.1,0.7-0.2,1-0.2c1.9,0.6,3.7,0.2,5.5-0.8c1.3-0.8,2.5-1.7,3.8-2.4c3.7-1.5,7.4-1.5,11.2,0c1.9,0.7,3.7,1.3,5.6,1.6
		c1.2,0.5,2.4,1.1,3.8,0.8c0-0.3,0.2-0.3,0.4-0.2c0.5,0,1.1,0,1.6,0c0.1-0.4,0.4-0.5,0.7-0.3c1.5-0.3,3.1-0.6,4.6-0.9
		c0.3-0.3,0.5-0.3,0.7,0c1,0.2,1.9,0.3,2.9,0.8c2.3,1.2,4,2.8,5.6,4.7c1.4,1.8,3.2,3,5.5,3.2c0.5,0,1,0.1,1.4,0.3
		c3.9,2,7.9,3.5,11.7,5.7c3,1.8,5.9,4.3,9.8,4.2c0.3-0.1,0.5,0,0.6,0.3c1.2,1,2.6,1.6,4,2c4.2,1.2,8.5,2.4,12.7,3.7
		c3.6,1.1,6.9,3.1,10.9,2.9c0.2,0,0.4,0,0.6,0.1c3.1,1.7,6.5,0.4,9.8,0.7c1,0.1,2.2-0.3,3.1-1.1c1.9-1.5,2.3-1.4,3.4,1
		c0.2,0.3,0.3,0.7,0.4,1.1c0.7,1.3,1.8,1.7,3,0.9c0.4-0.2,0.7-0.6,1.1-0.9c1.3-0.9,1.9-0.8,2.2,0.7c0.4,1.7,1.4,2.2,2.7,2.5
		c1.3,0.3,2-0.7,2.6-1.7c0.6-1.1,1.7-1.1,2.4-0.1c0.4,0.5,0.6,1.2,0.9,1.8c0.3,0,0.5,0.1,0.7,0.4c1.2,0.2,2-0.4,2.8-1.1
		c0.8-0.7,1.4-0.5,1.9,0.3c1.9,3,4.5,5.4,5.6,9.1c0.9,3.4,4.2,4.5,6.9,1.9c1.6-1.6,3.4-3.1,4.5-5.2c2.2-4.4,5.5-8,7.6-12.4
		c1.5-3.1,2.2-6.4,1.1-9.9c-0.9-2.6-2.5-4.7-3.6-7.2c-1.4-3.1-3.5-5.9-6-8c-3.7-3.2-4.9-8.2-8.5-11.3c-0.1-0.1,0-0.2-0.1-0.3
		c-1.3-3.4-4.3-5-6.9-7c-2.4-1.9-5.3-2.9-7.9-4.4c-0.2-0.2-0.3-0.4-0.5-0.6c-0.4-0.1-0.7-0.2-1.1-0.3c-0.3,0.1-0.6,0-0.8-0.2
		c-3.4-2.2-6.9-4.1-10.7-5.6c-0.6,0-1.3,0-1.8-0.5l0,0c-0.8-0.2-1.6-0.3-2.2-0.8c-0.1-0.1-0.3-0.2-0.4-0.3c-0.2-0.1-0.5-0.3-0.7-0.4
		c-0.1-0.1-0.3-0.1-0.4-0.2c-0.4-0.1-0.8-0.2-1.1-0.6c-3.8-3.8-8.3-6.5-12.6-9.6c-1.1-0.8-2.2-1.7-3.5-2.3c-3-1.5-6.1-3.1-8.8-5.1
		c-2-1.5-4.1-2.7-6.3-3.8c-5-2.6-9.3-6-13-10.4c-1.8-2.2-3.9-4.1-6.8-4.9c-1.9-0.6-3.6-1.5-4.7-3.1c-1.7-2.6-4.3-3.9-6.6-5.6
		c-2-1.5-3.9-2.8-4.7-5.4c-0.7-2.1-2.1-3.8-4.2-4.8c-1.9-0.9-3.6-2.5-6-1.6c-0.6,0.2-1.5,0-2.2-0.2c-0.6-0.2-1.2-0.5-1.4-1.1L471,79
		c-0.3-0.1-0.5-0.3-0.8-0.4c0-0.1,0-0.1,0-0.2c0.5-1.9-0.5-3.5-0.8-5.3c-0.5-2.8-1.8-4.7-4-5.7c-1.5-1.3-3.7-2.1-6.7-2.5
		c-3.9-0.5-6.6-2.4-9.3-4.9c-0.3-0.3-0.6-0.5-0.8-0.8c-0.2-0.2-0.3-0.4-0.5-0.6c-1.4-1.9-3-2.6-5-2.4c-1.3-0.2-2.7-0.1-4.2,0.6
		c-1.3,0.6-2.4,1.7-3.7,2.4c-3,1.5-6,3-9.1,4c-1.2,0.4-2.5,0.8-3.7,1.1c-1.2,0.1-2.4,0.4-3.6,0.8c-0.3,0.1-0.6,0.2-0.9,0.4
		c-1.7,0.5-3.5,0.9-5.2,1.4c-2.9,0.8-5.9,1.7-8.8,2.5c-0.4,0.1-0.8,0.2-1.2,0.3c-2,0.3-4,0.7-5.8,1.6c-0.3,0.1-0.6,0.2-0.9,0.3
		c-2.3,0.7-4.5,1.7-6.8,2.6c-3.8,1.4-7.4,2.4-11.4,0.1c-0.6-0.4-1.2-0.7-1.8-1.1c-2.9-1.6-6.2-2.6-9.4-3.7c-0.6-0.4-1.2-0.6-2-0.6
		c-0.7-0.2-1.6-0.2-1.9,0c-0.6,0.2-0.8,0.9-1.2,1.5c0.1,0.7,0.1,1.3-0.1,1.9c0.5,1.1,1.2,2,2.1,2.7c0.2,0.2,0.4,0.3,0.6,0.5
		c2.2,2.6,3.6,5.5,4.6,8.7c0.1,1.1,0.4,2.1,0.8,3.1c0.1,0.6,0.3,1.3,0.4,1.9c0.5,2.8-0.7,2.9-2.5,1.9c-3-1.6-5.9-3.3-8.9-4.9
		c-0.2-0.1-0.4-0.2-0.6-0.4c-1.1-0.8-2.2-1.6-3.4-2.4c-4-2.8-9-2.5-12.3,1c-0.8,0.9-1.1,2-0.9,3c0,0,0,0.1,0,0.1c0,0,0,0,0,0.1
		c0.2,0.9,1,1.7,2.2,2.5c0.8,0.5,1.9,0.7,2.5,1.4c1.6,1.7,3.2,3.5,4.6,5.4c0.1,0.2,0.2,0.3,0.4,0.5c0.2,1.1,0.9,1.9,1.7,2.6
		c0.2,0.3,0.3,0.6,0.5,0.9c0.6,1.1,1.6,3,1.3,3.4c-1.1,1.1-3,2.5-4.2,2.2c-4.6-1.2-9.2-2.6-13.6-4.4c-1.9-1.8-4.4-2.6-6.7-3.3
		c-2.4-0.8-4.5,0.1-6.1,2c-0.9,1.1-0.8,2.6,0.2,3.6c0.3,0.3,0.8,0.6,1.2,0.8c2.8,2.9,4.5,6.3,5.8,9.9c0.3,1.6,0.8,3.1,1.5,4.6
		c0.3,1,0.6,1.9,0.8,2.9c0.1,0.5,0.2,1,0.2,1.4c-0.9,1.3-2,2-3.3,2c-0.8-0.2-1.6-0.4-2.3-0.7c-2.4-1.2-4.8-2.6-7.2-4
		c-2.8-1.5-5.7-1.3-7.4,0.6c0.2,0.9,0.1,1.7-0.2,2.5c0.3,1.1,0.9,2,1.7,2.8c0.1,0.2,0.2,0.3,0.3,0.5c1.6,2.5,3.5,4.8,5.2,7.2
		c0.3,0.8,0.8,1.6,1.3,2.3c0.4,1,0.7,2.2,1,3.3c-0.4,0.3-0.8,0.6-1.2,0.6c-0.7-0.3-1.3-0.6-2-0.8c-1.2-1.1-2-2.5-3.4-3.3
		c-1.1-0.6-1.8,0-2.6,0.4c-0.8,0.5-0.3,1.2-0.1,1.8c0.4,1.8,1.5,3.2,2.5,4.6c1,2.6,2,5.1,3,7.7c0,0.5-0.2,1-0.7,1.4
		c-0.4,0.3-0.8,0.3-1.1,0.2c-0.4-0.2-0.7-0.4-1.1-0.6c-0.8-0.5-1.7-1-2.4-1.8c-2.1-2.2-4.5-3.8-7.6-3.9c-0.4,0.2-0.7,0.4-1.1,0.6
		c-0.1,1-0.5,2-0.1,3c0.1,0.2,0.3,0.4,0.4,0.6c0.6,1.4,1.4,2.7,2.2,3.9c0.7,1.3,1.4,2.6,2.1,3.9c0.5,0.8,0.8,1.7,0.8,2.5
		c0,0.8-0.3,1.5-0.7,2.2c-0.6,0.7-1.1,1.2-1.6,1.4c-0.6-0.3-1.3-0.7-1.9-1.1c-0.2-0.1-0.4-0.3-0.6-0.4c-0.7-1-1.7-1.8-2.5-2.7
		c-1.4-1.6-3.2-1.8-4.5-1c-1.9,1.2-2.1,2.2-1.2,4.7c0.6,1.8,1.3,3.6,1.9,5.4c0.5,1.6,1.1,3.4,0.4,5.1c-1,2.2-2.2,4.2-3.4,6.3
		c-0.7,1.1-1.5,1.4-2.4,1c-0.3-0.2-0.7-0.5-1.1-0.9c0,0-0.1-0.1-0.1-0.1c-0.9-0.9-1.7-2-2.5-3c-0.7-0.9-1.4-1.6-2.4-2
		c-1.3-0.6-2.5,0.4-2.4,1.8c0.1,0.7,0.1,1.4,0.5,1.9c1.6,2.1,2.3,4.7,3.5,6.9c0.4,1,0.7,2.1,0.9,3.2c-0.2,0.2-0.4,0.5-0.7,0.7
		c-0.4,0.3-0.8,0.5-1.1,0.5c-1.4-1.3-2.7-2.5-4.1-3.7c-0.6-1-1.2-2-1.8-3.1c-0.7-1.1-2.1-1.7-3.1-1.2c-1.1,0.6-1,1.5-0.6,2.5
		c0.3,0.8,0.4,1.7,0.7,2.5c0.3,0.2,0.4,0.4,0.3,0.8c0,0.9-0.2,1.9,0.1,2.8c0,0.1,0.1,0.2,0.1,0.4c0,0.4,0,0.8,0,1.2
		c-0.1,0.5-0.3,1-0.6,1.4c-0.4,0.6-0.9,1.1-1.3,1.3c-0.8-0.8-1.6-1.6-2.3-2.5c-1.4-1.9-2.6-4-4-5.8c-0.6-1.1-1.2-2.1-2-3
		c-1.1-1.4-2.4-1.2-3.4,0.3c-0.9,1.3-0.7,2.7-0.8,4.2c0.2,0.2,0.4,0.4,0.3,0.8c-0.7,3.8-1.9,7.3-5.1,9.9c-0.5,0.4-0.9,0.7-1.2,0.8
		c-0.3-0.4-0.7-0.9-1.1-1.4c-1.1-1.6-2.2-3.1-3.5-4.5c-0.4-0.5-0.8-0.9-1.2-1.3c-0.8-0.9-1.7-1.8-2.6-2.6c-0.3-0.3-0.6-0.5-0.8-0.7
		c-0.8-0.8-1.6-1.6-2.2-2.5c-0.5-0.6-1-1.3-1.9-1c-1,0.3-1.7,0.9-1.8,2c-0.2,2.4-0.8,4.8-0.6,7.2c0.4,3.7-1.5,6.5-3,9.5
		c-0.1,0.3-0.3,0.4-0.6,0.5c-2.5-1.8-4.8-3.6-7.2-5.2c-2-1.4-4.2-2.5-6.3-3.7c-2.4-1.3-3.7-0.3-3.9,2.2c-0.2,2.5-0.1,5-0.2,7.4
		c-0.1,1.3-0.3,2.6-0.7,3.8c-0.6,1.7-1.8,2.1-3.2,0.9c-1.8-1.7-3.5-3.5-5.2-5.2c-2.2-2.2-4.5-4.5-8-3.1c-2.5,1-4.3,4.7-3.8,8.5
		c0.3,2.7,0.1,5.2-1.9,7.1c-0.7,0.6-1.9,1.1-2.7,1c-0.5-0.1-1.1-1.4-1.3-2.2c-1.3-6.3-3.3-7.7-9.5-6.1c-1.9,0.5-3.9,1.1-5.7,1.9
		c-4.9,2.1-6,4.5-4.8,9.7c1.4,6.2-2.3,10.9-8.8,10.9c-0.7,0-1.7-1-2.1-1.7c-1.1-2.1-1.7-4.4-2.9-6.4c-2.9-4.7-3.3-4.9-11.9-6.9
		C152.5,211.3,155.2,204.1,158.2,196.9z M486,333.6c24.7-4.4,47.6-1.1,64.5,26c6.1,9.8,6.9,21.2,6.4,32.4
		c-1.1,24.6-13.7,40.9-36.1,49.6c-6.3,2.5-6.3,2.4-6.4,9.3c0,8.1,0,16.2,0,24.3c0,0.2-0.1,0.4-0.3,0.9c-9.6,0-19.1,0-28.7,0
		C487.7,428.5,487.2,381,486,333.6z M463.6,447.8c-6.7,5.8-12.8,11.1-19,16.4c-16.2-8.7-26.9-21.7-30.5-40
		c-3.7-19.1-2-37.7,7.6-55.1c4.6-8.5,11.3-15.1,19.1-20.5c1.5-1.1,3.1-2,4.8-0.2c4.8,5.2,9.6,10.4,14.5,15.6
		c-17.4,8-26.1,22.1-26,42.2C434.1,426.9,444.8,439.7,463.6,447.8z M383.4,347.7c2.1-0.1,3.8-0.3,5.5-0.3c5.1-0.1,10.2,0,15.3-0.2
		c2.4-0.1,3.1,0.7,3,3.1c-0.2,18.1-0.5,36.2-0.4,54.3c0.1,16.8,0.6,33.6,0.9,50.4c0,1.9,0,3.8,0,6.2c-8.2,0-16,0-23.5,0
		C386.6,423.6,386.5,385.9,383.4,347.7z M369.1,395.2c3.2,5.3,6.5,10.6,9.9,15.8c3.3,5.2,3.6,10.6,1.7,16.4
		c-2.8,8.7-8.3,15.7-13.5,22.8c-2.7,3.7-5.7,7.3-8.7,10.7c-0.7,0.8-2.7,1.3-3.4,0.9c-6.4-4.3-12.7-8.8-19.7-13.7
		c3-2.4,5.4-4.2,7.8-6.1c5.1-3.9,10-8.1,11.9-14.7c1.6-5.4,1.3-10.8-1.7-15.9c-3.2-5.5-6.4-10.9-9.5-16.4c-1.4-2.6-2.6-5.4-3.7-8.2
		c-2.4-6.6-1.6-13.1,2.4-18.8c5.2-7.3,10.8-14.3,16.5-21.3c0.7-0.8,3-1.4,3.8-0.8c6.5,4.8,12.8,9.9,19.4,15.1c-2,1.6-3.7,2.7-5.2,4
		c-2.2,1.9-4.4,3.7-6.2,5.9C363.7,379.7,363.3,385.5,369.1,395.2z M298.8,309.1c0-4.3,0-8.1,0-11.9
		C305.2,301.2,305.4,304.8,298.8,309.1z M458.5,109c-2-2.7-3.6-5.5-4.5-8.8c-1.1-4.5,1.1-8.6,5.6-9.8c1.6-0.4,3.1-0.5,4.7-0.2
		c0.3,0,0.6,0.1,0.7,0.5c2.1,1.7,3.1,4.1,4.2,6.6c1.6,3.7,2.5,7.6,3.7,11.4c1.9,6.2,1.1,12.1-3.6,17c-2.1,2.2-3.2,4.9-4.9,7.3
		c-2,2.9-4.5,4.6-7.9,5.3c-1.4,0.3-2.5-0.2-3.3-1c-1.8-1.5-3.5-3.2-4.8-5.2c-1.2-1.8-1.3-3.7-0.2-5.7c1.8-3.4,4.2-6,7.9-7.2
		c1.3-0.4,2.4-1.9,3.5-2.8c0.1-1.4,0.3-2.7,0.4-4.1C460.1,110.9,459.3,110,458.5,109z M490.3,129.7c-0.8-1.2-1.4-2.5-2.3-3.6
		c-0.8-1.3-0.1-2.7-0.2-4.1c-0.1-0.1-0.1-0.3-0.1-0.5c-0.3-0.6-0.2-1.3-0.1-1.9c-0.2-0.7-0.4-1.5-0.6-2.2c-0.6-1.4-0.5-2.8,0.4-4.1
		c1-0.8,1.8-1.8,3-2.3c1.1-0.3,2.1-0.4,2.9,0.6c3.6,2.9,6.3,6.5,8,10.8c0.5,1.3,1.3,2.5,2.5,3.4c2.3,1.7,3.7,4.3,5.9,6.2
		c1.7,1.5,3.3,3.2,5,4.6c2.4,2,4.3,4.3,5.2,7.4c1.1,3.6,0.5,6.8-2.1,9.6c-2.8,2.9-5.7,5.6-9.1,7.7c-3.6,2.3-7.2,2.2-9.9-1.2
		c-2.3-3-5.4-5.4-7.3-8.8c-0.8-1.4-2.2-2.3-3.4-3.4c-0.3-0.3-0.7-0.6-1.1-0.9c-2.6-2.8-2.6-3.7,0.4-6.2c1.4-1.2,2.7-2.3,3.5-4
		C492.2,134.1,491.7,131.8,490.3,129.7z M524.8,157.5c0.3-0.2,0.5-0.1,0.8,0c0.5-0.1,1-0.3,1.5-0.4c0.3-0.1,0.5-0.1,0.8,0.1
		c1.1-0.1,2.1-0.2,3.2,0.3c1.6,0,3.3-0.3,4.7,0.8c2.5,1.2,4,3.5,5.6,5.6c1.8,2.3,1.1,4.8-1.7,5.2c-4.3,0.6-8.6,0.7-12.9-0.8
		c-1.2,0-2.5,0.2-3.6-0.6c-1-0.7-2.1-1.2-3.3-1.6c-2.5-0.9-2.8-3.1-0.8-4.8C520.9,159.8,522.4,158,524.8,157.5z M280.8,282.5
		c8.1,3.2,13,11.3,11.5,19.4C283,298.4,279.5,292.4,280.8,282.5z M292,317c-0.1,0.4-0.2,0.8-0.3,1.2c0,0-0.1,0-0.1,0.1H286
		c-0.2-0.1-0.4-0.2-0.6-0.3c-1.1-0.6-1.1-3.5-1.6-5.4c0.4-0.2,0.8-0.4,1.1-0.6C287.3,313.7,289.6,315.4,292,317z M275,306.4
		c4,2.7,5.5,6.9,6.2,11.9h-18c-0.5-0.2-0.9-0.4-1.3-0.7c-1.3-0.8-2.2-2.1-2.5-4c-0.9-4.8-1.8-9.7-2.4-14.6c-0.3-3.1,0.7-3.6,3.2-2
		C265.2,300.1,270.1,303.2,275,306.4z M264.3,278.1c2.7-1.3,4.7-2.3,6.7-3.3c1,2.4,2.1,4.8,2.9,7.3c0.2,0.8-0.5,1.9-0.8,2.9
		c-0.9-0.3-1.9-0.3-2.6-0.9C268.6,282.4,266.8,280.6,264.3,278.1z M275.2,243c5,1,10.8,8.5,12.7,16.3c0.6-1.2,1-2.1,1.5-3
		c0.2,0,0.5,0.1,0.7,0.1c0,4.1,0,8.2,0,13.2c-6.1-4.5-10.6-9.2-14.1-14.9c0.2-0.3,0.5-0.6,0.7-0.9c2.2,1.4,4.4,2.9,6.6,4.3
		c0.2-0.2,0.4-0.4,0.6-0.5C281.1,252.8,278.2,248.1,275.2,243z M290.1,241.9c0.3-3.4,0.7-6.8,1-10.2
		C293.4,235.2,293.1,238.8,290.1,241.9z M251.2,318.3h-13.8c-3.1-0.6-3.4-3-3.3-10.8c0-6.2,4.3-11.4,10.1-12.7
		c0.7-0.1,2.1,0.5,2.3,1.1c1.9,6.2,3.6,12.5,5.4,18.8C252.6,317.2,252.7,318,251.2,318.3z M227.2,317.7c-0.1,0.3-0.2,0.5-0.3,0.6
		H225c-0.2-0.1-0.3-0.2-0.4-0.3c-2.7-3.6-5.4-7.3-7.9-11.1c-0.3-0.4,0.5-2.3,0.8-2.3c3.2-0.2,4.5-2.4,5.7-5c0.2-0.3,0.6-0.5,1.4-1.2
		c0.5,3.3,1,6.1,1.4,8.9c0.5,3,0.9,5.9,1.3,8.9C227.4,316.6,227.3,317.2,227.2,317.7z M212.2,318.3h-9c-1.5-0.5-1.6-2-1.1-3.3
		c0.8-2,2.2-3.8,3.8-6.5C208.2,312,210,314.8,212.2,318.3z M92.5,343.3c-0.9,33.4-1.8,66.8-2.6,100.1c-0.1,2-0.2,4.1-0.1,6.1
		c0.4,9-3.9,15.9-9.4,22.2c-2.9,3.3-6.9,5-11.1,4.9c-9-0.1-18-0.6-27-1.1c-3.8-0.2-4.3-1.2-4.5-5.1c-0.3-7-0.6-14-1.1-21
		c-0.2-2.5,0.5-3.2,2.9-3.2c4.8,0.2,9.6,0.1,14.3,0c4.6-0.1,6.3-1.5,7.2-6c0.4-2,0.7-4.1,0.7-6.1c-0.3-17.8-0.5-35.6-1-53.3
		c-0.4-14.4-1.4-28.8-2.1-43.2c-0.1-1.5,0-3,0-4.7c10.2,1.7,20,3.4,29.8,5C91.5,338.5,92.6,340.1,92.5,343.3z M168.2,360.5
		c-0.5,15.2-1,30.4-1.3,45.6c-0.4,16.7-0.7,33.4-0.9,50.1c0,2.6-0.5,4-3.5,4.4c-5.1,0.7-10.2,2-15.2,3.2c-2.2,0.5-2.8-0.3-2.9-2.4
		c-0.2-3.8-1.1-4.3-4.5-2.8c-1.3,0.6-2.7,1-3.6,1.9c-3.1,2.8-5.9,2.3-9.4,0.3c-8.2-4.6-16.7-8.6-23.1-15.7c-1.1-1.2-2-3.1-2-4.7
		c-0.3-18.3-0.1-36.7-0.7-55c-0.4-12.6-1.9-25.1-2.9-37.6c0-0.5-0.1-1.1-0.1-1.7c2.7,0,5.4,0,8,0c4.8,0.1,9.6,0.3,14.3,0.3
		c2.3,0,3.3,0.7,3.4,3c0.3,8.4,0.9,16.8,1,25.2c0.1,17.7-0.1,35.4-0.3,53c0,2.7,0.5,4.2,3.4,4.5c3.7,0.4,7.3,1.3,11,1.8
		c2.4,0.3,4.1-0.9,4.4-3.6c0.4-4.7,1.1-9.4,1.1-14.1c0-22.1-0.2-44.2-0.3-66.3c0-1,0-2.1,0-3.6c8.5,0,16.6,0,25.2,0
		C168.7,351,168.3,355.7,168.2,360.5z M219.4,461.9c-6.5,2.5-4.9,2.6-7.4-3c-3.2-7.1-6.4-14.3-9.6-21.4c-0.4-1-0.9-2-1.6-2.8
		c-0.6-0.7-1.5-1-2.2-1.5c-0.4,0.7-1,1.4-1.1,2.2c-0.4,4.2-0.8,8.4-1,12.6c-0.2,4.8,0,9.7,0,14.7c-7.7,0-14.8,0-22.1,0
		c-0.5-38.7-1-77.4-1.5-115.9c7.9,0,15.7-0.1,23.6,0c3.9,0.1,7.8,0.5,11.7,0.9c0.8,0.1,1.8,0.2,2.3,0.7c7,7.2,14.7,13.8,19.7,22.7
		c5.8,10.1,5.5,20.3-0.5,30.3c-1.9,3.2-4.2,6.2-6.6,9.1c-2.6,3.3-3.5,6.8-2.2,10.8c2.4,7,4.7,14,7.1,21c0.2,0.7,0.7,1.3,1.5,2.7
		c1.3-5.3,2.6-9.7,3.5-14.2c4.2-21,8.4-42,12.5-63.1c0.9-4.9,1.5-9.8,2.3-14.7c0.9-5.1,2.5-6.9,7.6-7c8.3-0.2,16.5,0.2,24.8,0.6
		c0.9,0,2.3,1.8,2.5,3c2.5,14.1,4.6,28.2,7.2,42.2c2.9,15.9,6.1,31.8,9.2,47.7c0.7,3.6,1.4,3.8,4.4,1.8c11.8-8.3,13.8-19.9,7.1-31.8
		c-3-5.3-6.2-10.5-9.6-15.6c-5.8-8.8-5.2-17.7-0.6-26.5c4.5-8.6,11-15.8,17.9-22.9c7.2,5.4,14.2,10.6,21.7,16.2
		c-1.9,1.5-3.5,2.6-4.9,4c-2.9,2.8-6,5.5-8.4,8.8c-4.2,5.7-4.7,11.9-0.9,18.1c3.7,6.1,7.5,12.2,11.4,18.3c3.6,5.5,3.7,11.2,1.8,17.3
		c-3.3,10.6-9.6,19.3-15.9,28.2c-2.1,3-4.3,5.9-6.6,9c-4.7-3.2-9.3-6.4-14.4-9.9c0.4,3.6,0.8,6.6,1.1,9.4c-6.3,0-12.3,0.1-18.4,0
		c-5.4-0.1-5.4-0.2-6-5.7c-0.7-6.5-1.3-13-1.9-20c-7.8-0.5-15.6-1.1-23.7-1.6c-0.9,6.6-1.7,12.8-2.5,18.9c-0.1,0.5-0.1,1.1-0.2,1.6
		c-0.6,2.8-1.2,5.1-5.1,5c-5.3-0.2-10.6,0.3-15.9,0.5c-0.6,0-1.5,0.1-1.8-0.3C225.2,458.7,222.3,460.8,219.4,461.9z M290.4,528.9
		c-0.9-0.5-1.7-1.2-2.2-2.1c-0.2-0.3,0.6-1.2,1.3-2.5c1.1,1.4,1.9,2.1,2.3,3C291.9,527.7,290.5,529,290.4,528.9z M293.4,522.7
		c3,0,5.4,0,8,0C299.1,525.7,296,525.9,293.4,522.7z M301,531.8c-0.8-0.2-1.4-1-2.1-1.5c0.6-0.6,1.1-1.7,1.7-1.7
		c0.7,0,1.4,0.9,2.5,1.7C302.1,531,301.5,531.9,301,531.8z M312,531.6c-0.2,1.5-2.2,2.8-3.6,3.9c-0.4,0.3-1.8-0.1-2.1-0.5
		c-0.4-0.7-0.5-1.9-0.2-2.7c0.7-1.5,1.7-2.8,3.2-5.1C310.3,528.8,312.2,530.4,312,531.6z M341.8,533.9c-0.5,1.9-2.5,1-2.8-0.2
		c-0.6-2.4-2-2-3.6-1.7c-1.6,0.4-3.2,1-4-1.6c-0.2-0.5-3.4-0.6-4.7,0.1c-2.3,1.2-4.4,1.5-6.6,0.2c-0.8-0.5-1.9-1.2-2-1.9
		c-0.3-1.9-0.2-3.8-0.3-5.8c1.6,0.5,3.2,0.9,4.7,1.5c0.7,0.3,1.3,1,1.9,1.5c-0.7-2.9-0.7-5.2,1.3-7.2c0.5-0.5,2.1-1,2.1-0.9
		c0.8,1.6,1.5,3.3,2.4,5.3c1.5-0.6,3.4-1.4,5.2-2.1c0.2,0.2,0.3,0.4,0.5,0.7c-0.8,1.4-1.5,2.7-2.7,4.8c1.7-0.1,2.8-0.4,3.6-0.1
		c1.5,0.4,3.5,0.8,4.2,2C342,529.9,342.3,532.2,341.8,533.9z M322.5,513.6c0,1.7,0,3,0,4.6C319.5,516.3,319.5,515.7,322.5,513.6z
		 M332.8,516.1c0.1-1.4,0.3-2.8,0.4-4.2c0.6-0.1,1.2-0.2,1.8-0.3c0.8,1.5,1.6,3,2.4,4.5C335.9,516.1,334.4,516.1,332.8,516.1z
		 M347.1,535.5c-1.1-2.8,0-4.6,2.5-6.1C350.9,532.9,350.3,534.3,347.1,535.5z M363.8,524.7c-0.5-0.1-0.9-0.2-1.4-0.3
		c0.1-1.7,0.2-3.4,0.3-5.1c1.4,0.4,2.7,0.8,4.7,1.3C365.8,522.5,364.8,523.6,363.8,524.7z M371.3,530.3c-2.9-2.1-3-3.1-0.7-5.5
		C372.7,526.3,372.8,528,371.3,530.3z M387.6,528.2c-1.5-0.5-3-1.4-4.9-2.3c1.5-1.6,2.2-4,3.8-0.8c0.2,0.5,1.3,0.5,1.9,0.9
		c0.5,0.4,0.8,1,1.3,1.5C388.9,527.7,388.1,528.3,387.6,528.2z M419.4,526.4c-1-0.9-1.6-2.1-2.3-3.2c0.5-0.4,1-0.8,1.5-1.2
		c1.1,1.1,2.1,2.1,3.2,3.2C421,525.6,419.7,526.6,419.4,526.4z M430.9,537c-1.3-2.3-2.2-3.8-3.3-5.8c1.4-0.6,2.8-1.2,5-2.1
		C431.9,532.1,431.5,534.1,430.9,537z M433.2,524.5c-0.2,0.9-1.1,1.6-2.4,3.3c-1.8-2.5-3.1-4.3-4.1-6.2c-0.1-0.2,1.1-1.7,1.9-1.9
		C430.4,519.4,433.5,522.5,433.2,524.5z M440.3,538.3c-1.4,0.1-2.9,0.1-4.3,0.2c0.3-1.2,0.6-2.5,0.9-3.7c1.2,0.6,2.5,1.1,3.7,1.7
		C440.6,537.1,440.4,537.7,440.3,538.3z M438.8,530.2c-0.2-0.4-0.3-1.3-0.1-1.4c0.5-0.3,1.2-0.5,1.7-0.3c1.8,0.4,3.6,0.7,5.2,1.6
		c1.3,0.7,2.4,2.1,4,3.6C445.7,534.8,440,532.6,438.8,530.2z M442.9,524c-0.1-0.3,1.2-1.7,1.3-1.6c0.9,0.5,1.6,1.2,2.9,2.3
		c-1.2,0.8-2.1,1.6-2.3,1.5C443.9,525.7,443.2,524.9,442.9,524z M468.4,525.5c-0.1,0-0.2-1-0.2-1.6c1.4,0,2.8,0,4.2,0
		c0,0.5,0,1.1,0,1.6C471.1,525.5,469.7,525.6,468.4,525.5z M515.1,520.8c-2.6-1-5.1-1.4-7.8-0.1c-0.8,0.4-1.7,0.6-2.5,0.9
		c-0.2-0.9-0.3-1.9-0.6-3.2c-4.2,2.2-5.9,6-6.4,10.6c-0.4,0-0.8-0.1-1.1-0.1c-0.3-1.6-0.6-3.2-1-5.1c-1.8,0.1-3.6-0.2-3.1-3.2
		c-0.4,0-0.7,0-1.1-0.1c-0.7,1.6-1.7,3.2-2,4.8c-0.4,1.9-0.1,4.8-2.3,4.5c-1.5-0.2-2.8-2.9-4.2-4.5c-0.1-0.2,0-0.6,0-1
		c0.8-0.4,1.7-0.5,2.2-1.1c0.7-0.9,1.6-2.3,1.4-3.2c-0.2-0.8-1.7-1.6-2.8-2c-2-0.7-4.1-1-6.1-1.5c0.1-0.4,0.1-0.7,0.2-1.1
		c1,0,2,0.2,3-0.1c1-0.3,1.9-1,2.9-1.5c-0.8-0.7-1.5-1.8-2.5-2.1c-1.5-0.5-3.1-0.4-4.7-0.5c-1.2-0.1-2.4,0-3.6,0
		c-0.1-0.4-0.2-0.8-0.3-1.2c2.2-0.8,4.4-1.5,7.1-2.5c-0.7-0.7-1.3-1.7-2.2-2.2c-1.8-1.1-3.7-2.1-5.7-2.8c-2.7-0.9-5-0.4-6.1,2.8
		c-0.3,0.9-1,2-1.8,2.5c-3.8,2.1-5.8,6-3.4,9.5c2.3,3.4,1.3,5.3-1.1,8c1.3-0.1,2.6-0.3,3.9-0.4c-0.1,3-3.6,5.7-6.1,4.4
		c-2.5-1.3-4.7-3.2-6.7-5.2c-1.5-1.5-0.9-2.9,1.4-3.3c1.2-0.2,2.6-0.5,3.6-1.1c0.8-0.5,1.7-1.7,1.7-2.5c0-0.8-1.1-1.7-2-2.2
		c-0.9-0.6-2.1-0.8-3.7-1.3c1.9-0.9,3.4-1.6,5.7-2.7c-4-1.3-7.2-2.3-10.6-3.5c0.6-1,1.2-2.2,2.1-4c-2,0.2-3.5,0.5-4.9,0.3
		c-1.2-0.1-2.2-1-3.4-1.4c-0.9-0.3-1.9-0.7-2.7-0.5c-1.5,0.3-3,1.1-4.7,1.8c-0.1-0.9-0.3-1.6-0.5-2.9c-3.6,1.5-4.6,4.5-5.8,7.6
		c-0.8,2-2,3.8-3,5.8c-0.4-0.1-0.7-0.2-1.1-0.3c0.4,0.8,0.8,1.6,1.2,2.4c-0.3-0.4-0.7-0.7-1-1.1c-1,2.1-1.9,4.3-2.9,6.4
		c-0.5-0.4-1-0.8-1.5-1.3c0-1.3,0-2.6,0-4.2c-1.4,0-2.6,0-4.3,0c0.9-1.4,1.6-2.5,2.3-3.6c-0.2-0.3-0.3-0.6-0.5-0.9
		c-4,1.7-8.1,3.5-12.3,5.3c-0.1-0.6-0.2-1.4-0.4-2.8c-2.4,1.6-3.9,4.8-7.5,3.4c0.4-1.2,0.9-2.5,1.4-4.2c-2,0.3-3.5,0.5-5.7,0.8
		c1.9-4.3,3.6-8.1,5.2-11.9c-0.2-0.2-0.4-0.3-0.7-0.5c-2.4,2.1-4.8,4.2-7.2,6.3c-1.2-2-2.2-3.8-3.3-5.7c-0.2,0.1-0.5,0.2-0.7,0.2
		c0.2-1,0.4-2,0.7-3c-0.2-0.1-0.3-0.2-0.5-0.3c-2.7,3.6-5.4,7.1-8.3,11c-0.4-0.5-1.3-1.3-2-2.3c-0.7-1.1-1-2.5-1.9-3.3
		c-1.1-1.1-2.6-1.9-3.9-2.8c0.1,1.9-0.5,4.5,0.5,5.6c2.2,2.4,2.1,4.9,1.6,7.5c-0.2,1.1-1.6,2-2.7,2.7c-0.3,0.2-1.3-1.1-2.1-1.7
		c-0.9-0.6-1.8-1.4-2.8-1.6c-1.4-0.3-2.9-0.2-4.8-0.3c1.3-1.2,2.2-2,3.3-2.9c-1.4-0.4-2.6-0.8-4.3-1.3c1-1,1.6-1.5,2.5-2.4
		c-3.1-0.6-5.7-1.1-8.7-1.6c0-0.5,0-1.4,0-3.2c-2.4,1.9-4.1,3.3-6,4.8c-1.3-2-2.3-0.9-3.1,0.5c-1.6,2.7-3.5,2.6-5.8,0.8
		c-2.4-2-4.5-4.3-8-4.8c-1-0.1-1.7-2.6-3-4.7c-0.1,0-1.2,0.1-2.4,0.2c0-0.7-0.1-1.4-0.2-2.9c-2.7,2.2-5,4-7.6,6.1
		c0.3-1.9,0.5-3.3,0.7-4.8c-0.2-0.1-0.4-0.2-0.7-0.3c-0.6,0.8-1.3,1.5-1.8,2.3c-1.2,1.9-2,4.1-5.1,3.5c-1.4-0.2-2.7,0.8-1.4,2.8
		c0.4,0.6,0.1,1.7-0.1,2.5c-0.5,1.5-1.4,2.9-1.7,4.5c-0.2,0.8,0.5,1.8,0.8,2.8c0.7-0.6,1.4-1.1,2-1.8c0.6-0.9,1.1-1.9,1.8-3.4
		c0.5,1,1,1.6,0.9,1.9c-0.9,2.4-0.5,4.1,1.7,5.8c2,1.6,0.9,4-0.4,5.8c-0.2,0.3-1.8-0.1-2.3-0.6c-1.2-1.2-1.9-2.8-3-4
		c-1.5-1.5-3.1-2.2-5.4-0.8c-1.8,1-4,1.4-5.3-1.4c-0.3-0.6-1.8-1-2.7-0.8c-1.6,0.3-3.1,1-4.7,1.6c-0.3-0.2-0.6-0.4-0.9-0.6
		c1.2-3.2,2.3-6.3,3.5-9.5c-0.2-0.2-0.4-0.4-0.6-0.6c-2.9,2.7-5.7,5.3-8.7,8.1c-0.8-1.6-1.5-3.1-2.1-4.5c-2.1,1.8-4.1,3.3-5.9,5.2
		c-0.7,0.7-0.8,1.9-1,3c-0.1,0.8-0.3,1.4-0.5,1.9c-15.3-8.3-29.7-18.1-43.1-29.3h328.5C541.5,505.4,515.1,520.8,515.1,520.8z
		 M691.2,347.2c5,0.2,9.9,0.8,14.9,1.1c2.2,0.1,2.7,1.2,2.7,3.3c-0.1,8.9-0.1,17.9,0,26.8c0,1.8,0.4,3.6,0.6,5.3
		c0.4,0.1,0.7,0.2,1.1,0.3c0.9-1.4,2.2-2.6,2.8-4.1c3.5-8.4,7-16.8,10.2-25.3c2.8-7.5,2.8-7.7,9.9-4c3.7,1.9,7.2,4.1,10.9,6
		c2.6,1.3,3.4,3,1.9,5.7c-3.8,6.7-7.4,13.5-11.2,20.2c-2.4,4.3-4.7,8.7-7.2,12.9c-1.8,3-1.7,5.8-0.1,8.8c4,7.5,8,15,12,22.4
		c4,7.4,8,14.9,12.2,22.2c1.2,2,0.5,2.8-1,3.7c-5.7,3.3-11.4,6.6-17.3,10c-7.8-13.9-12.9-28.7-21.5-41.8c-2.3,13.5-1.8,27-2,41.1
		c-7.9-0.5-15.5-0.9-23.2-1.4c0-6.5,0-12.6,0-18.7c0-19.5,0.1-39-0.1-58.5c-0.1-10-0.9-20-1.3-30c0-0.1,0-0.2,0-0.3
		C684.9,347,684.9,346.9,691.2,347.2z M678.3,368.9c6.5,8.8,7.6,25.7-1.3,36.2c-2.2,2.6-4.4,5.2-6.4,8.1c-0.7,1-1.2,2.8-0.8,4
		c3.9,12.2,8,24.4,12,36.6c0.5,1.4,0.9,2.8,1.4,4.6c-6.2,2-12.2,4-18.5,6.1c-1-2-1.9-3.7-2.7-5.6c-3.3-7.2-6.6-14.4-9.8-21.7
		c-0.3-0.7-0.5-1.5-1-2c-1.1-1-2.3-1.9-3.4-2.9c-0.7,1.4-1.9,2.8-1.9,4.3c-0.2,8.2-0.1,16.4-0.1,24.9c0.1,0-0.3,0.2-0.8,0.2
		c-13.4,0.6-26.8,1.4-40.3,1.9c-5.2,0.2-4.4,0.6-4.7-4.6c-0.4-6.4-1.1-12.9-1.6-19.3c-0.2-2.1-1.2-2.8-3.1-2.8c-6.7,0-13.3,0-20.4,0
		c-0.8,6-1.7,11.7-2.4,17.4c-0.9,7.4-0.8,7.4-8,7.4c-5.3,0-10.5,0-16.3,0c2-9.3,4-17.5,5.6-25.8c4.6-23.9,9.1-47.8,13.5-71.8
		c0.8-4.5,1.1-9.2,1.9-13.7c0.2-1,1.6-2.4,2.5-2.5c10.1-0.3,20.2-0.5,30.2-0.5c0.7,0,1.8,1.5,2,2.4c3.2,19.1,6.1,38.2,9.6,57.2
		c2.4,13.2,5.8,26.2,8.7,39.2c0.4,0,0.8,0,1.1,0c0-32.8,0-65.7,0-99l33.8,0.8c1.7,0.1,3.8,0.9,5,2.1
		C667.6,356.2,673.4,362.2,678.3,368.9z"/>
	<path d="M499.7,466.8c1.1,0,2-0.9,2-2v-29.5l0.3,0c10.6-0.2,20.8-4.6,28.8-12.3c8.6-8.4,13.8-19.9,14.7-32.5
		c0.8-12.7-2.9-25-10.6-34.5c-7.7-9.6-18.4-15.2-30-16c-0.8-0.1-1.6-0.1-2.5-0.1c-0.7,0-1.3,0-2,0l0,0l0,0c-0.2-0.1-0.4-0.1-0.5-0.1
		c-1.1,0-2,0.9-2,2v123C497.7,465.9,498.6,466.8,499.7,466.8z M501.7,343.9l0.4,0c0.9,0,1.7,0,2.4,0.1c21.9,1.5,38.5,22.2,36.9,46.3
		c-1.5,22.5-18.8,40.6-39.4,41l-0.3,0V343.9z"/>
	<path d="M363.8,357.1c-0.6,0-1.1,0.2-1.5,0.6c-0.5,0.5-12.2,13.1-11.8,25.5c0.3,8.2,4.1,14.8,7.7,21.3c3.7,6.5,7.2,12.6,6.3,19.4
		c-1.6,12.6-12.9,23.9-13,24c-0.4,0.4-0.6,0.9-0.6,1.4c0,0.5,0.2,1,0.6,1.4c0.4,0.4,0.9,0.6,1.4,0.6c0.5,0,1-0.2,1.4-0.6
		c0.5-0.5,12.4-12.2,14.2-26.3c1.1-8.1-2.9-15.1-6.8-21.9c-3.4-6-7-12.2-7.2-19.4c-0.3-10.7,10.6-22.5,10.7-22.6
		c0.8-0.8,0.7-2.1-0.1-2.8C364.8,357.3,364.3,357.1,363.8,357.1z"/>
	<path d="M531.3,378.3c-1.3-10.1-8.2-15.9-16-21.1c-3,4.9-2.4,54.2,0.3,60C531.8,408.9,533.3,394.3,531.3,378.3z"/>
	<path d="M697.7,452.5L697.7,452.5L697.7,452.5c0.6,0,1.1-0.2,1.4-0.6c0.4-0.4,0.6-0.9,0.6-1.4l-0.2-28.7l0.1-0.1
		c1.1-1.2,7-7.5,14.1-18.5l0.3-0.4l23.3,47.6c0.3,0.7,1,1.1,1.8,1.1c0.3,0,0.6-0.1,0.9-0.2c0.5-0.2,0.8-0.6,1-1.2
		c0.2-0.5,0.1-1.1-0.1-1.5l-24.4-49.8l0.1-0.1c12.1-20,17.5-36.1,17.7-36.7c0.2-0.5,0.1-1.1-0.1-1.5c-0.2-0.5-0.7-0.8-1.2-1
		c-0.2-0.1-0.4-0.1-0.6-0.1c-0.9,0-1.6,0.6-1.9,1.4c-0.1,0.2-5.8,17.3-18.5,37.9c-4.7,7.6-9.1,13.3-11.9,16.7l-0.5,0.6l-0.4-59.7
		c0-1.1-0.9-2-2-2c-0.5,0-1,0.2-1.4,0.6c-0.4,0.4-0.6,0.9-0.6,1.4l0.7,94.5C695.7,451.6,696.6,452.5,697.7,452.5z"/>
	<path d="M657.9,382.8c-0.6-6.6-6.3-13.4-13.2-14.9c-1.5,12.9-1.5,25.6,0.4,38.6C651.9,404.8,659,395,657.9,382.8z"/>
	<path d="M633.3,353.1c-1.1,0.1-1.9,1-1.8,2.1l0,0.1v97.4c0,1.1,0.9,2,2,2s2-0.9,2-2v-30.1l0.3,0c1.5,0,3-0.2,4.4-0.4
		c5.3-0.7,10.3-2.4,14.8-4.9l0.3-0.2l12.5,34.6c0.3,0.8,1,1.3,1.9,1.3c0.2,0,0.5,0,0.7-0.1c0.5-0.2,0.9-0.6,1.1-1
		c0.2-0.5,0.3-1,0.1-1.5l-12.8-35.5l0.2-0.1c10.9-7.8,16.6-20.1,15-32.2c-2.3-17-18.3-29.8-37.1-29.8
		C635.7,353,634.5,353,633.3,353.1z M670,383.3c1.1,8.1-1.4,16.2-7.1,22.8c-5.7,6.6-14,11-23.2,12.3c-1.2,0.2-2.5,0.3-3.9,0.3
		l-0.3,0V357l0.3,0c0.3,0,0.7,0,1,0C653.7,357,667.9,368.3,670,383.3z"/>
	<path d="M608.9,425l0-0.1v-0.1c0-0.3-0.1-0.6-0.2-0.9l0,0l-12.5-67.4h-17.9l-20.9,96.3c-0.1,0.5,0,1.1,0.3,1.5
		c0.3,0.5,0.7,0.8,1.3,0.9c0.1,0,0.3,0,0.4,0c0.9,0,1.8-0.7,2-1.6l5.8-26.9h38l5.4,29.3c0.2,1,1,1.6,2,1.6c0.1,0,0.2,0,0.4,0
		c0.5-0.1,1-0.4,1.3-0.8c0.3-0.4,0.4-1,0.3-1.5L608.9,425z M568,422.7l13.5-62.2h11.3l11.5,62.2H568z"/>
	<path d="M443.9,358.4c-0.5,0-0.9,0.1-1.2,0.4c-14.3,11.1-22.5,28.2-22.5,46.8c0,19,8.9,36.8,23.8,47.8c0.3,0.3,0.8,0.4,1.2,0.4
		c0.6,0,1.2-0.3,1.6-0.8c0.3-0.4,0.5-1,0.4-1.5c-0.1-0.5-0.4-1-0.8-1.3c-13.9-10.2-22.1-26.8-22.1-44.5c0-17.3,7.6-33.2,20.9-43.6
		c0.4-0.3,0.7-0.8,0.8-1.3c0.1-0.5-0.1-1.1-0.4-1.5C445.1,358.7,444.5,358.4,443.9,358.4z"/>
	<path d="M237.6,454.9c0.1,0,0.3,0,0.4,0c0.9,0,1.8-0.7,2-1.6l5.8-26.9h38.1l5.4,29.3c0.2,1,1,1.7,2,1.7c0.1,0,0.2,0,0.4,0
		c0.5-0.1,1-0.4,1.3-0.8c0.3-0.4,0.4-1,0.3-1.5l-5.6-30.9c0-0.1,0-0.2,0-0.2l-12.5-68.6H257l-21,97.1
		C235.8,453.6,236.5,454.7,237.6,454.9z M260.3,359.4h11.3l11.5,63h-36.5L260.3,359.4z"/>
	<path d="M395.7,455.5c1.1,0,2-0.9,2-2v-94.3c0-1.1-0.9-2-2-2c-1.1,0-2,0.9-2,2v94.3C393.7,454.6,394.6,455.5,395.7,455.5z"/>
	<path d="M208.7,415.6l0.2-0.1c2.6-1.8,4.9-4,6.9-6.3c6.4-7.5,9.3-16.7,8-25.9c-2.3-17-18.3-29.8-37.1-29.8c-1.1,0-2.3,0-3.5,0.1
		l0,0l-0.1,0c-0.1,0-0.1,0-0.2,0c-0.1,0-0.1,0-0.2,0.1c-0.1,0-0.1,0-0.2,0.1c-0.1,0-0.1,0.1-0.2,0.1c-0.1,0-0.1,0.1-0.2,0.1
		c-0.1,0-0.1,0.1-0.1,0.1c0,0-0.1,0.1-0.1,0.1c0,0-0.1,0.1-0.1,0.1c0,0.1-0.1,0.1-0.1,0.2c0,0-0.1,0.1-0.1,0.2
		c0,0.1-0.1,0.1-0.1,0.2c0,0.1,0,0.1-0.1,0.2c0,0.1,0,0.1,0,0.2c0,0.1,0,0.1,0,0.2l0,0.1v97.7c0,1.1,0.9,2,2,2c1.1,0,2-0.9,2-2
		v-30.1l0.3,0c1.5,0,3-0.2,4.4-0.4c5.3-0.7,10.3-2.4,14.8-4.9l0.3-0.2l12.5,34.6c0.3,0.8,1,1.3,1.9,1.3c0.2,0,0.5,0,0.7-0.1
		c0.5-0.2,0.9-0.6,1.1-1c0.2-0.5,0.3-1,0.1-1.5L208.7,415.6z M189.6,418.9c-1.2,0.2-2.5,0.3-3.9,0.3l-0.3,0v-61.6l0.3,0
		c0.3,0,0.7,0,1,0c16.9,0,31.1,11.3,33.1,26.3c1.1,8.1-1.4,16.1-7.1,22.7C207.1,413.2,198.8,417.6,189.6,418.9z"/>
	<path d="M198.2,368.3c-1.7-1.8-3.5-0.9-3.7,1.6c-1.1,12.2-0.5,24.3,1.1,36.3c0.4,0.2,0.8,0.3,1.2,0.5c3.5-4.2,7.4-8.2,10.5-12.7
		c3-4.3,3.6-9.6,0.9-14.1C205.6,375.5,201.8,371.9,198.2,368.3z"/>
	<path d="M585.8,374.5c-2.6,13.3-5.2,26.6-7.8,40c6.3,0,11.7,0,18.2,0c-2.9-13.8-5.7-27-8.5-40.1
		C587.1,374.5,586.5,374.5,585.8,374.5z"/>
	<path d="M312.4,451.4c0.6,0,1.1-0.2,1.4-0.6c0.5-0.5,12-12.6,13.4-26.7c0.8-8.2-3.4-15-7.4-21.7c-3.6-5.9-7.3-12-7.8-19.2
		c-0.6-10.6,9.6-22.4,10-22.9c0.4-0.4,0.5-0.9,0.5-1.5c0-0.5-0.3-1-0.7-1.4c-0.4-0.3-0.8-0.5-1.3-0.5c-0.6,0-1.1,0.2-1.5,0.7
		c-0.5,0.5-11.8,13.4-11,25.8c0.5,8.2,4.5,14.7,8.4,21.1c3.9,6.4,7.5,12.3,6.9,19.2c-1.3,12.7-12.2,24.2-12.3,24.3
		c-0.4,0.4-0.6,0.9-0.6,1.4c0,0.5,0.2,1,0.6,1.4C311.4,451.2,311.9,451.4,312.4,451.4z"/>
	<path d="M266.8,377.6c-2.7,4.3-8.7,30.5-8.5,35.8c5.2,0,10.5,0,16.2,0C272.4,401.1,270.1,389.6,266.8,377.6z"/>
</g>
</svg>
